<mxfile host="app.diagrams.net" modified="2021-01-06T05:55:20.386Z" agent="5.0 (Windows NT 10.0; Win64; x64) AppleWebKit/537.36 (KHTML, like Gecko) Chrome/87.0.4280.88 Safari/537.36" etag="lZHH6zjVgqJmq1M-lzr4" version="14.0.4" type="github">
  <diagram id="C5RBs43oDa-KdzZeNtuy" name="Page-1">
    <mxGraphModel dx="1673" dy="896" grid="1" gridSize="10" guides="1" tooltips="1" connect="1" arrows="1" fold="1" page="1" pageScale="1" pageWidth="827" pageHeight="1169" math="0" shadow="0">
      <root>
        <mxCell id="WIyWlLk6GJQsqaUBKTNV-0" />
        <mxCell id="WIyWlLk6GJQsqaUBKTNV-1" parent="WIyWlLk6GJQsqaUBKTNV-0" />
        <mxCell id="JJHpx4JvDZ3OPgQH-rT--1" value="司机端" style="shape=umlActor;verticalLabelPosition=bottom;verticalAlign=top;html=1;outlineConnect=0;" vertex="1" parent="WIyWlLk6GJQsqaUBKTNV-1">
          <mxGeometry x="90" y="680" width="30" height="60" as="geometry" />
        </mxCell>
        <mxCell id="JJHpx4JvDZ3OPgQH-rT--2" value="" style="shape=image;verticalLabelPosition=bottom;labelBackgroundColor=#ffffff;verticalAlign=top;aspect=fixed;imageAspect=0;image=data:image/png,iVBORw0KGgoAAAANSUhEUgAAArUAAAI4CAYAAAB0jhFHAAAgAElEQVR4AeydedgcVZ3v6/5x7zN6URQdddzujIh35o4zbkMeFwQiiELQQpkRt8FoRMARWeMMg4yMKAUKKioaJYSwhArZ95UQXgJvJSQkkJCFLSwJ6SyEACEkbxLyu8/vVJ1Tp6qreqm3uvtU1Zfnabq7qs45v/M5pzuf/vXp81rUo/8OHToUaZmfl/2mdzjef/0cHoMACIAACIAACIAACLRHwGrv8vyvliKbf83m1VilvppHHxGBAAiAAAiAAAiUmUDPpbbMcNE3EAABEAABEAABEACB7hCA1HaHM1oBARAAARAAARAAARDoIAFIbQfhomoQAAEQAAEQAAEQAIHuECi11O7ftYueGjuTVl5wHd19/Dm0bPhPacOv76DdGzfTa6+9Jm74wVZ3JhpaAQEQAAEQAAEQAIFOEiit1G6eeg9NfuNQGm8dLW7z/vF09ZiPPXzZH2nv3r20f/9+OnjwoNh5oZOgUTcIgAAIgAAIgAAIgEDnCJRSaleef50vsv/wz7Rpyhg6dGilur2wcjotOv6b4vzsvzuDXnjhBXrllVdoYGAAmdvOzTPUDAIgAAIgAAIgAAIdJVA6qeUMLWdil37rh0pkdamVj9f85Kf+def9kp577jnatWuXyNwia9vR+YbKQQAEQAAEQAAEQKAjBEontbzkYMZ7T6aBF+5rKLUstzJju2723fTUU0/Rzp07hdjyelv8BwIgAAIgAAIgAAIgUBwCpZLabYuXi+zrk2N+31RoWWp5KQJnde8592e0fPlyIbacseWlCPgBWXEmMSIFARAAARAAARAAgVJJ7aO/vkNIKsuqXGbQ7J6ldtbxZ9GCBQto1apVtHnzZrHGlpch4D8QAAEQAAEQAAEQAIFiECiV1K75yY1CapuJrH6ed0WY8ren0+TJk+nee++lxx57TPx4DNnaYkxgRAkCIAACIAACIAACTKBUUrvx5hlCarfe7baVqZ352e/RHXfcQfPnz6eHH36Ytm7dirW1eH2AAAiAAAiAAAiAQIEIlEpq5Zpa3tlAz8amPWb55eUHM8+4mG677TaaOXMmrVixQixB2LNnj9jiq0BjiVBBAARAAARAAARAoLIESiW1vGvB3L//Kk0+/DjavXFBU7Gd8/dfpgl/cQzNuPp3dOutt9KMGTPogQceoE2bNhGktrKvCXQcBEAABEAABECggARKJbW8Y8HzD6wV2dd5Hz09VWx5u69lwy/ws7TD/51uvPFGkamdNWuWyNTyvrWQ2gLOZoQMAiAAAiAAAiBQWQKlk1r+gdf6348XwsoZ2w2//iVtWzxeZG15V4SNN99AM97zeXF+6ie+RX/+85/ppptuItd1xQ4Iq1evpm3btok1tdjWq7KvC3QcBEAABEAABECgYARKJbXM/sCBA/Tyyy/TxjlLaMaRXxLyOt76CI23PkbjrX8Szye87tM069wrhNCOHj1aLD2YOnUq3XffffT444+Lvy62f/9+7FVbsMmMcEEABEAABEAABKpLoHRSy+tq9+7dS9u3b6d169bRA9ffQnO/9EMhs1M++BWaecnPaMpvfqOE9pZbbqFJkybRokWLiLO0W7ZsEUsPsE9tdV8U6DkIgAAIgAAIgEDxCJROannJAGdrd+/eTbw2ds2aNbTgN6P9jO3p5xNL7JgxY+jmm2+mcePG0ZQpU4TQ8h9eeOaZZ+jFF18kZGmLN5ERMQiAAAiAAAiAQLUJlE5qeTg5W8ti+tJLLwmxfWDsJCG1M775H0Ji77zzTpo4cSLNnj1b/MEFztA+++yzYtnBvn37sJVXtV8T6D0IgAAIgAAIgEABCZRSankcpNhyxvbRqQuF1N71vSvp7rvvprlz59LChQtp6dKltH79erHkgAUYQlvAGYyQQQAEQAAEQAAEQKBsf1EsPqIstrwUYdP8+4XU9p9/rdiy6/777xf70W7YsEHsdPDKK6+IzC5fj/9AAARAAARAAARAAASKR6DwmVr+07iPXDFa3db85EaK35aeeYWQ2gWfHEH3/9s1tOTsn9P937+all34K1p16Q20+vI/Rcqw3PKN1+diW6/iTWpEDAIgAAIgAAIgUD0ChZfaRcedLYSV/9xtXrdXX31V7KDAe95yphcZ3Oq9MNBjEAABEAABEACBYhEovNRyJpW33+L1sLw/7c6dO8V2XvwHFLZu3SpuG6fcJYR36Xm/pAcffJA8zxPLD3jLL97xoFarqWu5DJd9/vnnxQ/NeHswrh8Z22JNbEQLAiAAAiAAAiBQLQKlkFrOpvK62B07dtCmTZvoySefFH9Egf+QAt/W3z5TSO19Z/9c/IGFxYsXi10PVqxYQWvXrqXHHnsscj2XZ9llwWVRxhZf1XpRoLcgAAIgAAIgAALFI1AaqeVdDvgPLrCMPvHEE/Too4+q27rbZgipXfK9n9GSJUvEDgh9fX0iW8v72PIPxvTrWYSfeuopkcHlXRF4GQIytcWb3IgYBEAABEAABECgOgRKI7W8DnbXrl1i6QD/0QXO2Mrb4xPmCant5x+HLVsmxJaXIPD+tCzALMLyWr7fvHmzEFpeyrBnzx6xrhZSW50XBXoKAiAAAiAAAiBQPAKFl1pGzj/k4iUIvP6VJZSztrxsQN42zb5XSO0DF1wn/sIYLzt46KGHxDIFXj/Lf0VMXivveTkD18dLD/BDseJNbEQMAiAAAiAAAiBQLQKlkFoeMs6ksnzyj7pYcPVb7a5lQmpXXHK9WGbw8MMPE/9IjDO6LLFylwO9DNfD9UFoq/WCQG9BAARAAARAAASKSaA0UtsI/7bFy4XUPvij34nlBnIdLe96wJldiGsjejgHAiAAAiAAAiAAAuYTgNRCas2fpYgQBEAABEAABEAABJoQgNRCaptMEZwGARAAARAAARAAAfMJQGohtebPUkQIAiAAAiAAAiAAAk0IQGohtU2mCE6DAAiAAAiAAAiAgPkEILWQWvNnKSIEARAAARAAARAAgSYEILWQ2iZTBKdBAARAAARAAARAwHwCkFpIrfmzFBGCAAiAAAiAAAiAQBMClZDaledfJ/apXXjMWfT444+Lvyq2YcMG8adwsU9tkxmC0yAAAiAAAiAAAiBQAAKll9qNN88QQjv58M+I+3u+PJL0vyjGfw4Xf3yhADMVIYIACIAACIAACIBAAwKlllr5l8Tmfeib9MqWLXTvVy4VYtt/8XVCbJ955hl66aWXxJ/U5T+zi/9AoJcEtt29nBZ86lu04OPFuq26+Dfiz1PLPyuN11IvZxHa1gk8ffscWvDJM4v1mvrEcNpw3bjKvaZeWvsULfjw12nBB7+CW7sM/vGr9PSdCys3Z/TXunxcWqndteoxmvymE4gztHu3b6ddu3bRU089RTM+8M9CbJf+5PdiKcKOHTto7969yNbKGYH7nhF4duJdNOWIz9DjN/y6MLe+k4dT35cuoN27d4s/Ob1v3z7xIRHffvRsGqFhjcD6X95Gsz4wrDCvJ37tLxjyFXrgXKfuNVX2D4s7lz0i/m1+fPjbCLf2GMx8yz/R2uvGqTkzMDAgBLfsc0Z7qauHpZTa/bt2KaF9fvk6evnll+m5556j9evX07rFi2n6UaeLF8+GyQvp2WefFcLLkwD/EKt5gQc9IMBSO/O9p9ChQysLc1t9+RW0aNj3xQdGfo3t3LlTyO2BAweoim+oPZg2aLIBAZbaRcd/szCvJ37t93/zPLpv+E/o6aefFv9uvfDCC/Tqq6+WXlKE1P6PIUTjLNzaZLDwqI/Rg//9Z+Jvn2u1mnAaTtYdPHiwwaujnKdKJ7UstPM+/HUhrbW7lolPLlu3bqUnnnhC/EBs1apVtG723TTxsONp0huH0mPTF4s3Dl6GALEt5yQvSq+KKrXzT/wueZ5HDz30EG3cuFGILWds8SGxKDOvvHEWVWoX/ctIWrZsGa1evVrILX/TyP8+lfmDIqQ2u8wveP9H6b6Lr6MHHniAHnnkEdq0aZNYWrl///5Sz5mkd67SSe0S+2IhtE/eNE1kjLZv3y7+oV27di3x7dFHH6Unn3ySHp9xD016w/E0829Pp2dXrhSfbvgr1CpOgqSJgWPdJ1BUqZ316TNpxowZdPfdd4u16lu2bBGvPUht9+cQWowSKKrUzhn2A5o5cyb19fUJSeHETNmXyUFqs0vt/CM/QgvOuoJmz55N9913H/HuTry0kpMLZf4gFH21+89KJbVLv/XfQmhX/vBa8XUNDyqvoxXLDtatEzLLqfnnn3+etm3bRg//8mZxPYvt5oceEsd4NwR8dZo0VXCs0wSKKrUzPvF1GjdunPhHmLNLvKSHX0dV/Oqr03ME9bdHYN0vbi3c8oP7v/EDmvHZ75HrujR37lx68MEHxbeJZd9+ElI7CKl934dp9pn/SXfeeSctWLBAJBeq8EEo6d2gNFL76K/vEILqnXmF+ETLa/t4fQkLLWdoefkBDzKvr+VPvPyPLkuvFNt7vjRSCDBndvnNA2KbNF1wrJMEiiq10z/+Nbrlllto6tSpYhkCrwXkbz0gtZ2cLai7FQJFldppJ3yXbr31VvFBcfny5eLrZEhtdukr+zrd+e/7MM38xr+L5AJ/EOJllpzAK3t2P+k9oBRSK/ei5a27eBB5YT1nizgFz0LLf3CBB5iFVq6bZWllseWM7T2n/0gI8ZIzLxfrlziTW4WF+UkTAsd6R6DIUjt27Fghtf39/eI1BKnt3TxCyyGB3KS2/zy6qr87P+DkTK2UWl7Ww+skeY1kpaX2Cousj1lUi/+A6gqL7B9AdqXU3n777TRnzhxIbfgWULxHcusuIbTbt9OLL75ImzdvFmtnWWgfe+yxxB+C8ToTXj/L//iy8C767Pf9pQvOaJHh5UxvFT/lFG8GlCfiZlK75Y7j6/5h5WP2HQtSft29gO6wrboyzXZX6L+q9TK8+wFnaiG15ZmHZepJe1I7lq6yHdqSsvtI/1XH0x1bVtKh/vPIsqyE23nUL8pqr7stDtmJ16a/xiC1KZJ6gyVYerrYNpLaRuf0OsZZ5H7MIveGaLu1H1jkXBE9xhlfR8p1EE98LkTiG2eRd0ZYtyoba19mkp2UucJtxOuVZfgeUhu+axU6UyuFlvei5a27eAcD3laIRVb+KIw/4fIvR5N+jc0/ZOHMLZfbvmEDzfq7M4TYrrlhvPhknFYuxIdHIJAfgZaltq1/KPkf2OAf45R/rOskl+tv8I+7fj2kNr/xR035E2gktfzhLS4kSc/Vh0Z+XVw1NuUDZDyLG33dKSE+1Fic+bUFqa0XSV3gWDaTxomP6Vlblsm068TxM7R2OBOsPx9nUUtSGyvDchyXTymyXJ8en94n+VheK5/L+6R65Tm+h9SG7x2Fllrevmvl+dfRzhXrxVICuXUXCy0vPeA1tbwUoVHGVYotZ3i3rltHd514Lm1culSIMf+Km5csYEeEcMLgUecIpEutn/lRb9D8D2v8H9j+89IztpxZSvvHODXrFP8HQWahov94Q2o7Nx9Q8+AJNJLaQ4f4daXP65hwxl9jrX4ojFw3lq5Kyb4pWY5cD6nVZU0+ZqmTWdOIbOrZWP2xnlFNyYqKuhOyrXo76j3Xssi5xM8Uy2P2x+LvkcFzmcnldq8I4+Y+yLKRe02Mkakd/Gu+0FLL3Wcp5Sysvo6WhZZ/rNLq2lhZB2dmObPL237xD8x45wSuo5EUD34IUAMI+ATSpdYXyfjyA/W8yT++fJ1lNc/Wqvpi/8jqmdn4Y0gtZq/JBJpLbYpoSBEVHwbDD5X2HU6qpApRuWos+a83K/ggqYmy/jpt8CEUmVotg6oJKWdeWThbkVpxDWdG5TjG73Xx1NrQM6WRdhKukdlTsbyAhTqQU70OKeNcl8gEs0RrEiulfbD3yNSG70KlkFqWTl4Dyz8O4z1oOUPLOxu0s4sB/1Jb1sNiy/WwGMvdEPBL7nDS4FFnCLQitZFP+PE3an5el5HlTNF51K//g5oirWlfx6ZllFhwIbWdmQuoNR8CzaW2jUxtTEQbfghUrzdkalsdyVa39BKCmPTeJ5cfsDimSGuSPKo1rzdY5Gg/OkuVWm6bM8da5tVlqZUxybaDLDCLOGdgxbKEhMywXMvb1nIJTbK5T5DacJaVQmo5U8vLB3gnA16CkOVPdfIPx1hcedcDzvpyPXzj7C3LLqQ2nDR41BkC6VIb/sMY+QU2/8PZZO2ryBoFohuu64suIZDZ18TzsX/I5bXyHlLbmbmAWvMh0FxqW8nUBq8X/bWgpNX/4VjdBz91HpnaVkeymdSyZPKa1Ihs6ksO5OMrLHIbrLvlxIAUSSG5QTmul4/zfV3ygEWV190GQhvfhUHPzkpxFpnlILssj1GDTK2S65iwirINyvF5SG04ywovtSyjvD0XiyfvZMA3fpxln1kptlyet/viulhyeU0tL1HAfyDQSQLpUhtdfpCWURVvuJFMbZCllZnZhhIcuzYow1Jc9w+2rA+Z2k5OB9SdA4HGUhv/cKcJqFhvG1uyo6Q2vhZ3pVhyEHmd6FIrM3ix+8j12msKyw/Slx9I6ZTrXnnNqvrxlf44SQyDY0nyyFLqnOFvGRaR5qCMLq3isRTc2JhKGeb4WKzr6mogp/G49DYbyTCkNvpGUXip5e6wcHImlUWWb/yYBTXLf1yO65N18T0/z1pflhhQppoEWpVazpLGZbM+y+qvA4xkdhPKyYwri3LSP7INv2KF1FZzohao142ktuGHQ01W1OsikFrx7Yd2nkWGr4m8BnWpld+mqGMp2d1AbCG1yVIrv8KPiKIusvrjBlIbKS+v0ySV5VZJc5rUynK8ZRdnkD+WvFa2rq2E5QeyrYjUxuU3/lxrH1IbfUMqhdRyl1g65S3axbRnNXJth7z4ac8h262puiCzcUB43ikCrUvtAurvXxD+IMWK73npC636x1jLAvm/+I4KrPhHWv7Dm3BtXIylCPM9lh90ajag3jwINJJasd8sf7MhM7AsncFrSXyYu0Pbwis418oPLg/xtl2B9Ka+dmSbkdebnzmG1CZIrSZ1LIoyIxq/V1nbmPSJr/DlsWD7LiGRTrgWVm7FlVi/XCer76oQCCpLqZ69lfVwm4lS2+yHYoFgs1zL/jXrF5YfhO8WxkttzbXVwMoBrrt3QjXl6+XTeFmW1eh/Hjm2S3zUc2wSpwOpJUqR3mgFeAYCuRFIl1r562v+OlQ+5je88OtRmXXyM0ZRadUl1H8cSm+90Or1W2Qlym74tS2kNrfhR0UdIJAutTzPgx+JKWENJcLiH1eycAbb4fVf1eharZwuyZrc1v2bJaRX/5Fa+JqC1NZLrS6H+uO4rDaTP3m93F5LF1B5Lql+XVp5FwMWYv0vnOlLBTijLLOvdXVpci7b43u+Ts2RBOlV5xPOcXlIbfjmYbzUhqGmPKq5ZEuLJaK41KpTSla5HhZWbRI5HnmO9lx9tZSQyU0JA4dBYLAE0qU2/AevXlB7ew5SO9hRR/lOEkiX2t6+bhq9jiG19VKrCyAe1/OB1IbvImZLLQurEswU6ZRSG7/WdsnTsrYUkdoQAB6BgCkEILWmjATiKAsBSG1xRrLZ7geQ2XqZlUwgteE8N1tqwzjTH0mpFVf4GViZndWztnGplcsNxL3rhKn/uEQHyxPSA8AZEMiHAKQ2H46oBQQkAUitJGH+PaQ2XVqlvKbdQ2rD+W2+1MYzsIF0qvWxutR6Uk799bGNpFaek3KrkCCjq1DgQXcJQGq7yxutlZ8ApLY4YwyphdTmMVuLIbUy9Sp7rIunklr/h12uWHLg/wCs4fIDUYcX7IDgib/4oRZqa9naeNMyBNyDQN4EILV5E0V9VScAqS3ODIDUQmrzmK3lkdqaS45bi/xQLJKF1UWYyQkZdoLdD4JdEKQgB9fKbG4eoFEHCDQjAKltRgjnQaA9ApDa9nj18mpILaQ2j/lXDKnVMqcym5q4/CCy+wFnX7XdC6TUynsWWNsOdk6A1OYxmVDH4Aiw1E5+87G0auSPC3Nb+Kmv0vSPf43Gjh1LU6dOpf7+fnr66afFX+PDn5Ye3HxA6cETYKmd/s7PF+b1xK/9OX9/Gk074bt066230owZM+iBBx6gTZs20Z49e8QfAho8FTNrEFJrHU0PDXs3bm0ymPqmf6KZ3/h3uv3222nOnDm0atUqqtVq4q+rVu2voRZDahutAZDZ1eB1KrOrfK/El88lZV/lGlwnyNjKupKuNfN9AFGViMDzSx+h+077d+o75UK664R/o7mf+i7NPPpMmv7Rb9K0j3zD2NvMf7mQbrnlFiG1nudBaks0J4veledmLBGvqXtOvoAWfub7NOeTIwrxmpr9nUvptttuo5kzZ9Ly5csrIbW7n3iW7vvySOobdj4tOvFcmnfMd2jm0d+g6R/9Kk37yBm4NWLw0a/S7It+RuPGjaO5c+dCaov3xhXdZ1Z3Xl9qwz+qoPrGwioyvvwjMq28KFx/PddjWcEfZFCV4AEIdI4A//W6ffv20Y4dO2jt2rW0aNEimjhxovjHjTOhpt5YaF3XpdmzZ4us0rPPPkuvvPJKqbNKnZsFqDlPApyl2rt3L23dupUefvhhWrhwIU2YMMH41xRnae+8806aN28erVy5kp577rnSZ2r5/W9gYIB27txJ69evp8WLF9OkSZOMHytT3pf5QxD/e8FzfPXq1bRt2zZkavN8M0FdIAAC7RGQb+ovvPACPf7448RZz/nz59P06dNFFpS/3jfxNm3aNCG099xzD61Zs0Z87fXqq69CatsbflzdAQL6B8VHH32U7r//fpHJMv01xfHx18hLliyhdevWVUJQeKz2799Pu3btoieffJKWLVsm3v94CYaJ73umxcRzhj8E8RIwnuvPP/+8+JDAXKv0n/nLD6o0GuhrpQnwm8+BAwfEetQtW7bQhg0b6MEHHxRv7iy4pt6WLl0qviJloeX1tCzlnHGp2lquSk9eQzsvRemll16izZs3iwxgUV5TK1asEN/Y8DcfL774YiUEhdfh87c8vB6UxYyz1Cy3pr73mRQXc+K5zVluzuy//PLL4t8TSK2hb06DDev+M/6T9m1/YbDVoDwIdJQAiyAvQeB/hLdv3y7+IX7mmWcoj9uaBffSrG9flktd8Xj4hyz8DxELLWdpWc6r9mba0YmByjMTYFHiJQgshvyVLM/V+PzN+nyFO5MWXnRNbvXpcXCcvGyCM5ccP/ej7K8pfv/jD8QsZHm//+lssz5eNXU+zf3+lR0Z76wx6eX4gxvPcf73g/8dqWJioTKZ2r5hF9K+bTszvzGiIAh0gwD/o8VvRPw1HP9Dxr945szF7t27B33b1L+KFp95+aDricfC8fGNZZb/QYLQdmOmoI1WCfBrioWQ52ber6knpt9N/Rf/qiOvKX7ty9dUFYSWx7OT73/x960sz5+afz/d930n9/HOEku8DL8H85zhOc5zvSpzJv4+AKmNE8FzEDCAgHxzZ8HN67Zz5QbyvvPT3OpLi4tjx38gYBIBnpOdeE09N6+fVv7H7zr6mpKxm8Sz07F0YqzS3q/aOb6170Facf61HR3vduJJu7aKc0bOSUitJIF7ECg5gV0PPUbLRvys5L1E90CgewRqC5bSQ5fe0L0G0VJPCWxfsopWXvCrnsaAxhsTqIzUHnjlVf5uozENnAWBEhM4dPAgHdizt8Q9RNdAoLsEDh04SAf37utuo2itZwT4PfTgqxjvng1ACw1XRmpbYIFLQAAEQAAEQAAEQAAECkoAUlvQgUPYIAACIAACIAACIAACIQFIbcgCj0CgVAQGduygVRf8quHt8VGTIz96KBUAdAYEcibw0oZnG76e+PX27Pi78JrKmTuqA4FWCVRGarFPbatTAteVhcDz9z1EM997Gq392Rj/duVN9MhPR6vnD11yPc36wL+IPQ15exjeCoa34+Jf1OI/EACBegKP/dal+R/7pnoNrY29ph4Y8TOa/8nv4DVVj64UR3Z4q/HDQMNHsjJSi31qDZ+JCC93Aiy1i4eek1rvnmdqNPP/fVn8Gc4nnnhC/BUa3rSb9ziE2KZiw4kKE2CpXX721akEtt+7iuYOGS5eUxs3bhR/kIQ/MPKHRfxXfALY/cD8MYTUmj9GiBAEMhFoRWqn/+1pNG3aNFqwYIH4E4v812n4H2FIbSbkKFRyAq1I7fQPf51mzJhBixYtoocfflh8WORN8fGaKv7kgNSaP4aQWvPHCBGCQCYCrUjtlKO+SNdeey396U9/otmzZ9OaNWto586dyCxlIo5CZSfQitRO+vt/Ea+pm266iebNm0cbNmwQf+oW2drizw5IrfljWBmpxT615k9GRJgvgVakdtL7T6WLLrqIrrzySrrlllto6dKl4m+Hl+4fYM8hy/FigD1ybJdqsaP8tObaVHd5wnX5H0qPKf+2UGO7BFqR2vH/90t0ySWXkOM4NH78ePENyI4dO/BBsV3YBl6PfWoNHJRYSJWR2li/8RQESk+gFamd+P5hdPbZZ9Oll14qsrVLliwR6wB5XS2RR45lkSVuDsWV0AfI18TP1ci148fqcUtx9ByroUDydVZdG7I+bkvGGLuPC2ud2KYJZIM6mYVWr+fY5EasOKHvnutf4zminzXXEc/lveyJ4inq19lr/dLajpbDs24QaEVq3aNsOuecc+jyyy+nsWPHig+KkNpujA7aAAEiSC1mAQiUlEBLUnvkMBoxYgSNHDmSRo0aRX19fYHUPuPLou2QI6SxkaSyHMrrNAFrIsRSaokSRDAYExZem62x5pKdKLYNBDRRANOvF+1wu9xWq2naumuT+lIj13GpxlLruuQIC064TvQx4GfbZNfFH9RT0vlahG61IrV3HGXTWWedRZdddhmNGTOG+vv7y/ntRxEGDDFWjgCktnJDjg5XhcDgpJYztfyflMBGUhtcKTKqCVIrBFHWk3Beya8VLhHgrKoVz+D62Usln5H4EupVUui37ZXi/ckAACAASURBVHuqLpNaprYmZZNIZF9dv30/S63XLTnE+yMztrHjjkcs5vF6WG5tvd8qVhkTMrX+rDLr/5Bas8YD0YBAnEBlpBb71MaHHs/LTqAbUusvDbDIdpyopOnCZknhiy5VEGUTMqJCAjlTGakjLoYOeYH4xoUx/jyUWY6jidTWZV5bmSVSRPlavX6tLGdpmZHtr9Xlvks5jy5hkHXJe65Df6zViYddJwCp7TpyoxrEPrVGDUdiMJWRWuxTmzj+OFhiAt2QWoHPc7QlAnH5TMq2+tlOKcRh1lJmQWODEqxFjR0NnsYyoxERTqov/XohmZ5LjsNreOv7wcekiHLjHL+fhA6zvElSKySdLwz64T93yXV5lXJcgoMMreNo65mjsSR8DkhGg6O5E4DU5o60UBVi9wPzhwtSa/4YIUIQyETATKn1uyK/kveFVmZyw25K4U2US/VVPV+fLqnxH5f5GVFdIrUMqLb8IIwi9kjKuzwcZHXlD75kn8KYZWY4KqXyh2aiHC9zkJYqM8+if1psyNRK4j2/h9T2fAh6GgCktqf4W2ocUtsSJlwEAsUj0BOplYIW4FLZTO05Sx9fps4FP5DSs6AR2rlkauWPrAYhtXXiy3XZZPOPwHiRQGwnBPVcL6cvbxD9jgt9ILNip4aEbG1E6COU8KQLBCC1XYBscBOQWoMHJwitMlKLfWrNn4yIMF8CXZVa/ro8ZV2t77l+RlUXVyW1otv15xWNVKn1y4SZ0VhGlJcQSAlUMsll5LIELRuqi6dqOP7Av94LtuTyw5Y/+OL+RwU1lNoaeepHdFrbcolD5IOA34YrtjnT4hONxZ/H48PzThOA1HaasNn1Y59as8eHo6uM1Jo/FIgQBPIlkI/UNo9JLBVgeVTiKNKWwbrUqOiJ2uTX7OoHZNE2RH1S+NLuWQRVPQkyq5VjkQ4FOl2EdeGORhQ+85cYsJjKeqSkcjjxOMK+S0ah3IbnRD8kP45bbeeVsAOClPQwJDzKgcCBPXvpyTEzaMvc/oa1QWob4sFJEOg5AUhtz4cAAYBAZwh0S2o7E33xalWZ2SB0+ZxltxVhru9xPDMbf15fAkeyE9h2zwqa8rbP08z3fYnW/vxmeuXpLXWVQWrrkOAACBhFAFJr1HAgGBDIjwCkNj+WqKkaBF5c8wTNeN9pNN4aQjP+zxfp3lMvotq88G/pQWqrMQ/Qy+ISqIzUYp/a4k5SRJ6NQCtSO+EdJ9IVnzyNfnHi12nMV39Icy64ilZcNZrWX+/SY7+fgBsYVG4OrP7xH2nq206i8dbR4jb58M/Q9Pd+kTZcN44gtdnei8pSCvvUmj+SlZFa7FNr/mREhPkSaEVqJ77zs/TjY79MV59yJo0ZfgnNvfQ6WnX9OHr8pum0cews3MCgcnNg1SW/pYlvOE5ka11rCE1560k054Nfo8f/OBlSm+9bVOFqw+4H5g8ZpNb8MUKEIJCJQEtSe+QwGjFiBI0cOZJGjRpFfX19VKvVaGBA/pncTE2jEAgUkkBt/lKafMSJNOEvjqFpf3UKLf3XK2jH/Q+rviBTq1BU8gGk1vxhh9SaP0aIEAQyEYDUZsKGQhUl8PTtc2nym0+guf/4dXr0+vE0sPPFOhKQ2joklToAqTV/uCsjtdin1vzJiAjzJQCpzZcnaisvAd7S6+lbZ9OO+x5q2ElIbUM8pT+JfWrNH+LKSK35Q4EIQSBfApDafHmiNhCA1GIOgIDZBCC1Zo8PogOBzAQgtZnRoSAIJBKA1CZiwUEQMIYApNaYoUAgIJAvAUhtvjxRGwhAajEHQMBsApWRWuxTa/ZERHT5E4DU5s8UNVabAKS22uOPfWrNH//KSC32qTV/MiLCfAlAavPlidpAAFJb7TmA3Q/MH39IrfljhAhBIBMBSG0mbCgEAqkEILWpaCpxAlJr/jBDas0fI0QIApkImCG1NXIdl2qZemBooZpLtuMZGhzC6iQBSG0n6ZpfN6TW/DGqjNRin1rzJyMizJdAx6WW5c6yyJK3NNHzHLJd1lqPHHmtfm/70ltz7bAu/bx67FCSSvrlks8R1ci1tRhVXRZZQbuCuueSH6JD3I2a64jn8j4yMlJq4/2XdadxiFSCJ0UkAKkt4qjlFzP2qc2PZadqqozUdgog6gUBUwl0VmqTBTXZ51gsWTo9cnSRjIFjOU0u71/oOfXi6jmWL8xCMOvPtyy1LL+cUfYcclyXHGG4Mm4tUM8Jxdu2EzK2HjmNOqFVhYfFIwCpLd6YIeJqEYDUVmu80dsKEei01LpC/HygMsvqZ2TTICeLsCyjpDaeAQ1EOCK1gVxG/dGvX9YXRNZSppblWGWcg4wry20kEy2FHJnatAEu/XFIbemHGB0sOAFIbcEHEOGDQBqBzkpttFVfCm3/K3ztVFR2OVNrk22FGVUlssRf+QeZ2prMlHJF4ZpcKbWiLVFPvYiGYuqQp2dV5dKAhHslxpyldRyybT8OjkcKsudofdOlVhaWx7S+42H5CEBqyzem6FG5CFRGavu/9mPat2NXuUYPvQGBBgS6IrWaOEq/qwtJSqoSP86oOuSp536JVqW2rn6W0aTFtuLCBmtqNbkWosyVBHX5z11yXa44tgyB47YsslmAEyTZsjQBrgsWB4pMAFJb5NEbfOzPL11Dq3/8x8FXhBo6RqAyUot9ajs2h1CxoQQ6LbUsoZwZldnMVAyB1Cpp5QuFDEflT52XEiwqrM/U8mHZdpiZ1bK2cpmALJ/2QzEltQniG9QhfijmOmQF1qza5ee6lOuPRbv4XxkJQGrLOKqt9wm7H7TOqldXQmp7RR7tgkCHCXRUaoNsZVwqEwVXSKob/kiMhVZIY5CxDTjoUhvJgAaCKZcf1GHLIVPLgur/OEwYc/gDMNHPqHxLmeV4E7O16WnjutBxoFgEILXFGq+8o4XU5k00//ogtfkzRY0gYASBjkqttuxAF9skqfXX2/rraNXX/JIQS6PKira/+4GoJlVqEzKw8eUCQdtUq5GnthSTa361H7bpoiqysi65tk2uF9uzVpxLXQshe437ghKA1BZ04HIKG1KbE8gOVlMZqd3/0it06LXXOogSVYOAWQTykNqXNjxNB1/dl71jUjhFxlNbIhCRS18i1Vf7kXN6mVavs/zlAinirUs4P5YiLtq3XU1utQytzC4HdfKPycSShKR+6QKcnRxKGkgAUmvgoHQxpEMHDpLY876LbaKp9ghURmrbw4KrQaD4BAYjtU9PuovuPv5cmvr2z9PLj2/qCgy1/CCltdTlBynXt3OYM8hSbtspJ5ciqDLI1CoUZXwAqS3jqKJPZSIAqS3TaKIvIKARaFdq/3zFNTTjayNpyjs+T5PfdAJNe+cp9MpTW7Qa8RAEqk0AUlvt8UfvzScAqTV/jBAhCGQi0KrU/scJ/0x/fu9JdMebh5JrHU3jrSE07a9Oodp8j15c8wRuYIA5EMyBddeMpeVnX536etx+7yq64yibzjrrLLrssstozJgx1N/fT9u2baMDBw6klsMJEACBfAhURmqxT20+Ewa1FIdAq1J78//+FI37nx8XMutaQ4TYzvnwN2jp8P/GDQwwB7Q5sOriX0Nqi/MWmHuk2Kc2d6S5V1gZqcU+tbnPHVRoOIFWpXbEiBF05T+PoNv+4XSa8PaThNxOeP2n6cHzrjW8hwgPBLpLAMsPusvbtNaw+4FpI1IfD6S2ngmOgEApCLQjtSNHjqRRo0bRojun0dL/+C3N+JvTaNIbh1L/GZeVggU6AQJ5EIDU5kGxuHVAas0fO0it+WOECEEgE4EsUtvX10e1Wo0GBgZoy9x+uuek86i2cFmm9lEIBMpGAFJbthFtrz+Q2vZ49eLqykgt9qntxfRCm70kMFiplbEfOnhQPsQ9CFSaAKS20sNP2KfW/PGvjNSaPxSIEATyJZCX1OYbFWoDgeISgNQWd+wQeTUIQGqrMc7oZQUJQGorOOjockcJQGo7iheVg8CgCUBqB40QFYCAmQQgtWaOC6IqLgFIbXHHDpFXg0BlpBb71FZjQqOXIQFIbcgCj0AgDwKQ2jwoFrcO7FNr/thVRmqxT635kxER5ksAUpsvT9QGApDaas8B7H5g/vhDas0fI0QIApkIQGozYUMhEEglAKlNRVOJE5Ba84cZUmvUGNXItW1ya9Ggaq5Njhc95j/zyLFdil2edCGOVZAApLaCg44ud5QApLajeI2vHFJr/BBRZaS2vX1qPXIsiyx5ayKONdcJRbTmkh0xUBZVrS5ZZ+w+LFIvtqlS6zlhjLH6OHZVZ11MROQ5ZMfs2XMS4tT67jn1wi2muOeEbZk/5ysTIaS2MkONjnaJAKS2S6ANbQb71Bo6MFpYlZFarc/NHybJojLEoHjSNaliqWVUA5nUBTFRWlPrd0gmbfU6mnWq7toEqZV1eE7YBlGNXMfPBss6OF4l/Al95nNxYZZ14757BCC13WONlqpBAFJbjXFGL4tLAFKbNHaeG828ti1pmsSK+qOZXxY+XWSVRLLIysyoJp2J14rsq5uaBVZSGZdjKeeR41oGlutVosrH66WWKNqfesHVpTgJMI51gwCkthuU0UaVCEBqqzTa6GsRCUBqE0cttmRAimbk2nCZAH9tL11Rfa3PcqjKaZIrZVXea5lQUT3LJlemzlOiAMusaSSkJk90Odbr14vp9fqynSS1egl/KYPqf+wUnvaOAKS2d+zRcjkJQGrLOa7oVXkIVEZq29unNia1+vrUyNj71zle/fV+9lJmQKOZTT+LGohuzSUntrZVNBHJpOprXTkLWiPXdaLrflV2la/VM6WhUKuMMDegSbPsEkuv7Tj+mmC1DjcutWl91WO0woyzrBz3XScAqe06cjRYcgKQ2pIPcJPuYZ/aJoAMOF0ZqW1nn1rP1XcUkEKqi6IvhZZlk+tFfxjGYigyrZHBDcVSl0nOitrx3Q6kTGrSqWdYI2IaaUM+YemMxupnXz1yOJ0aWV4QiKhIs4byyjGylPvZ1/C4nsVVrYmdGcJrRP8jUi2vxH23CUBqu00c7ZWdAKS27CPcuH/Y/aAxHxPOQmoTRqHZLgBhEZZVR9z8H2/5cudGfmjFV/tS62k/sBLZWpZHtUQhqFXuJJBZajkJG5VaIdJ2sC2YlGbZifhz4euWJuahsEalNpB9ue4gkGW1llfWj/ueEYDU9gw9Gi4pAUhtSQe2xW5BalsE1cPLILUJ8P1so/Z1elw8uYzIZrI8hpnRcGuvICsq6g6/rpciK+/l2lldbJU4DkJq/cyuHgOH6/dHLS+Q/Y5IbRBrUn9Fl/3lFH5d3PegDcXCX/8rll5I2ZXt4D5XAgdeebVpfZDapohwAQi0RQBS2xau0l0MqTV/SCsjte3tU9vawElRtBx/fWskSylET66p1eoTx/VMaCDIQiSjyxTqdxVgMY1lYbWq1UM9axq0p2ILzkXqDgRUyHyCjKp+xtuWdSWUUbHgQUcIPHLlaFr8uR/Qc7PvS60fUpuKBidAIBMBSG0mbKUphH1qzR/Kykit+UPRpQgjmVny19hCSrsEP99m7j7pBzT5iBNoxt/YtO7nY2j3xuciDUBqIzjwBAQGTQBSO2iEqAAEOkoAUttRvKgcBDpL4P4z/pMmHvZpGm8dTTP+2qZ7hl1AW+bcLxqF1HaWPWqvHgFIbfXGHD0uFoHSSu3cv/sKTXvXKam3SYcfT/ecfD4tPvl8uueUC8SNd0jADQyKNgem/dXJ5FpDhNiOt4bQhNcfSws+/h2C1BbrzRjRmk8AUmv+GCHCahMordSy0PL6l0OvvZZ4m/V+mzauWkPPrllP2x7bSLue3kyvPLeN9m3biRsYFGYOrLrgVzThdZ8SQjvpjUNp2rtPpYcvvYH2PLsVUlvt93b0vgMEILUdgFqgKrFPrfmDVW6pfe211BGY+f7TaNGiRbR06VJ65JFHqFar0Z49e+i1BmVSK8MJEOgBgVUjr6c7/9cnafq7htHdn/k+bZ5xbyQKZGojOPAEBAZNAFI7aISFrgC7H5g/fBWW2i/RH/7wB7rtttto3rx5Qmx37txJBw4cMH/UEGHlCWyevIim/OVn6aFLb6DdT2xK5AGpTcSCgyCQmQCkNjO6UhSE1Jo/jJWV2hlHnkY/+tGP6KqrrqJbbrmF+vv7RbZ2YGDA/FFDhJUnsHP52qYMILVNEeECEGiLAKS2LVyluxhSa/6QVlZqpx9p09lnny3EljO2ixcvpk2bNtHevXvNHzVECAItEIDUtgAJl4BAGwQgtW3AKuGl2KfW/EGttNQOHz6cLrzwQvrtb39Ld911F6TW/PmKCNsgAKltAxYuBYEWCEBqW4CES0CghwQgtZDaHk4/NN1JApDaTtJF3VUkAKmt4qijz0UiAKmF1BZpviLWNghAatuAhUtBoAUCkNoWIOESEOghAUgtpLaH0w9Nd5IApLaTdFF3FQlAaqs46mGfdz6wllZfPio8gEfGEYDUQmqNm5QIKB8CkNp8OKIWEJAEILWSRDXvsfuB+eMOqe2g1HqOQ16uc6BGrm2TW4tWWnNtchIb8sixXYpdHi2MZ6UlAKkt7dCiYz0iAKntEXhDmoXUGjIQDcKA1A5Saj3HIsuykqWy5pItbJNl1L+Orw1vgfR6jnZMPy8f6yJbL7apUtukXiXCKk5tpngO2TF7ln0N47fI0qTZc/Q4o3WptrTDeNhZApDazvJF7dUjAKmt3pjrPYbU6jTMfAypHYzUatKYJm2+6LGINsjaJgikPl1qrlOXnSWt7YhkWmE7qZKpVx48rru2QUzRDHSNXMfPBss6WLKjMUk5D+/jwpwQEg4NkgCkdpAAURwEYgQgtTEgFXv62sB+2v/yKxXrdbG6C6nNKrWc3bQssm1f4NKk1p8OKZlaWUgJpEdOQiZXSS2LrMyMqjJEeqZWCafIvropGWIrzMLG5ViLKRRTLQMb9Ns/x8frpZYo3o9QZv1yoXgX6+VSrGghtcUaL0RrPgFIrfljhAirTQBSm0lqfWnjbKPMSkoXVNNJyqI44S8ZYAFW3+hrUspZVz9z6ZGjVSQFVUktV8718jWqTLLUyqypiqeFB7oc6/XrRfV6/fiSpFYv4cesdSt2Ek87RQBS2ymyqLeqBCC1VR159LsoBCC1bUttkIUMLC1VasUMkJIqf7Al18PK58E0UYIqr/ePJ0qtnFlSmiOZXc6Icha0Rq7rxLK+erZUz5SGscj2/NClaMsGfXm2HcdfJ6zW4calNiUrHY9TZpzD6vEoZwKQ2pyBorrKE4DUVn4KAIDhBCC1bUqtlNjwq3lNFuvSkYGkKmklNkOxbCFyqTrfgtRKmVRlkjO16fOOpVOXWk76cgY5aDuyvCDomwg2lFeRLVY/jguP61lc2b6f/Q2v8flF25fX4j5fApDafHmiNhCA1FZ7DmCfWvPHH1LbptTGh1RKbkRS1UUsiryuNZA4IYz8WGZsgwuVoMbXovrl4ssPRFuqTLtSyxIbk0quyw62BZPSLPsQfy5WE1j+EghxTSisUamNZrSlzOMHYhJs5+8htZ1njBaqRQBSW63xjvcWux/EiZj3HFLbQan1hddfRyseR75yZ+kL5FIT1KQpokutEketDNctpbpOWBMq9K+PZ4X9rKxaXiDLRaQ2WFoQ6Ye8UGZ8+Z7r4r4FbYilElLQg50RZMBhcTzKmQCkNmegqK7yBCC11Z4CkFrzxx9SmyC1hw4epGcn3EUbrhtHr+0byDaKNZcc8auwePZVW65gBT8cS10fK6+VPzAL17/KJQD1yyBiWdik6EXGONgBIWhbZVCDc5F6AwEVYp4go+H+tbG2ZV0JZZLCwrF8CUBq8+WJ2kAAUlvtOQCpNX/8IbWa1D668H564Lxf0vR3n0pT3noSvbj+qe6MoJZ1TWpQz9Qmnc/1WCQzG6wBhpTmirhblUFqu0Ua7VSFAKS2KiOd3E/sU5vMxaSjlZfai86/gP707Ytp0ge/QlPeeQq51hAhta8+t92kcUIsINA2AUht28hQAAQaEoDUNsSDkyDQcwKVltqrPvh5uvX1n6I7XvcpGm8NIdc6mia/+QRa/V9/onW/uBU3MCj0HHjyxqm0eOg5qW8ye56p0cQjh9GIESNo5MiRNGrUKOrr66NarUYDAxmX3aS2hhMgUHwCkNrijyF6UG4ClZbaSz99Go1+21Aa98bjRIaWxXbSG46nh//zD/TMnQtxA4Niz4Fx8yC15X7/Ru+6TABS22XgaA4E2iRQaakdPnw4XXjhhfSHi39CU7/wA5ryVyfTxL84hiYfcSLV5nltosTlIGAWASw/MGs8EE3xCUBqiz+Gg+kB9qkdDL3ulIXUaj8Ue3rD4/TY6Gk0/6P/SlPe8ll6+va53RkFtAICHSAAqe0AVFRZaQKQ2koPP2H3A/PHH1KrSe2mTZto7969YtSeX/YIbV2wNPuWXuaPPSIsOQFIbckHGN3rOgFIbdeRG9UgpNao4UgMBlKbIrWJtHAQBApEAFJboMFCqIUgAKktxDB1LEhIbcfQ5lYxpBZSm9tkQkVmEYDUmjUeiKb4BCC1xR/DwfQA+9QOhl53ykJqIbXdmWlopesEILVdR44GS04AUlvyAUb3Ck8AUgupLfwkRgeSCUBqk7ngKAhkJQCpzUoO5UCgOwQgtZDa7sw0tNJ1ApDariNHgyUnAKkt+QCje4UnAKmF1BZ+EqMDyQQgtclccBQEshKA1GYlV45y2KfW/HGE1HZLaj2HbLdm/oxAhKUhAKktzVCiI4YQgNQaMhA9CgO7H/QIfBvNQmqTpLbmkm1ZZOk3p/4vjHlO7Br9en5su6Q0VpPammtrdduku67nhM/lY74+oXmS55PjcEhFzP2JV6DFkzZfaq4TiS3tOhw3kwCk1sxxQVTFJQCpLe7Y5RE5pDYPip2tA1I7CKltPDQeOUJqa+TamvzaLnmapEoxDevi621yXUcT32j5GnnkaALteLKtoJYEia1rpyWp1eXbjwHZ5nCkTH8EqTV9hBBf0QhAaos2YvnGC6nNl2cnaoPUJkmt5wtlPLkZGYCkbG4D0eRsqxRCPfNaJ5uRRvwn+vX66UjZIB7btusyxIkZ56CP/rkwO6zXj0ytTqN4jyG1xRszRGw2AUit2ePT6eiwT22nCQ++fkhtA6kNZVD7Kr9l5tHsqVwiwKKsS2pETKVoOh7J68MYwmytlG1ZVl3LWWDOwAZyLSVahqy3SymZWlWXJugqBn05hawU98YSgNQaOzQIrKAEILUFHTiEXRkCkNoEqWX5UyIn5S5J6KSEymv4Xl2nSW3NJcfmTK1HrsPLD8K1qlJMwxnnkSOtlZcZqCUM9WLtC6ieZZXXh7WRqoPIc7Q6UqVWry+5Hv0oHptLAFJr7tggsmISgNQWc9wQdXUIQGoTpDY6/HL9qiaE8oI6MawJafV/HBYKphBXN9z9QBdZ/bFfbWOp9ZcEyJh8AU2UcMtSPy7z2wjqTVo2oSSaxTfMCLck9pIF7o0jAKk1bkgQUMEJQGoLPoAIv/QEILUJUpsodpr4qVnRYqbW8zy2xWBNLf8QLBRkXzj1Y6HUhssFwvO6BCtZ1TPF+mMZM7dtBzsoxH9EFn+uOocHRScAqS36CCJ+0whAak0bke7Gg31qu8s7S2uQ2gSpFV/ZJ8lhnLAS1fgJfh5masVZeS2LsJRNvkps4RVmeH2hdsjVflgmapMZVLW8QZbV2461qZ2Som47TnR7r4jUyvKhRIdiLc9pleKh0QQgtUYPD4IrIAFIbQEHLceQsftBjjA7VBWkNlFqs9PWlwJEfqglpNaLZGm5FXU9iy6vvRWb1srlBUlLAXjJAUsnnwszvn7ECeIZZJNVLKnLD7hNrT4p4br0ymPZ8aBkTgR2P7GJ9mza1rA2SG1DPDgJAm0TgNS2jaxUBSC15g8npDZnqTV+yHVJ5WDjz43vAAJkAk/+aQpNefvn6N4vXky1BUsToUBqE7HgIAhkJgCpzYyuFAUhteYPI6S2alJr/pxEhC0S2DRpEU064kSadPhQmvn+L9P6a26NZG8htS2CxGUg0CIBSG2LoEp6GfapNX9gKyu10/76C3T+qWfQ5V8/i/54yU9o3g1jaf2sxVS7bxXxYnDcwKAIc2D91bfQlCNOoPHW0eRaR9P0936B7rUvpm2LHiBIrflvwIiwWAQgtcUaL0RbPQKVldqp7zqZfvG3n6PrP/RFGnPMN2jaF8+je868nJZ+7+e04vvX4AYGhZkD0955spBaFlu+TX3756nv1IsgtdV7P0ePO0wAUtthwKgeBAZJoLJSO/1Im4YPH04XYvnBIKcQiveSwJwPfZ3GW0No8ps+Q9PeeQo9dMn19OLaJ0VIyNT2cmTQdhkJQGrLOKroU5kIQGohtWWaz5Xqy4y/tmnaO4fRomO/R89OWkR06FCk/5DaCA48AYFBE4DUDhphoSvAPrXmDx+kFlJr/ixFhHUE1lw5mlaefx29tHZj3Tl5AFIrSeAeBPIhAKnNh2NRa8HuB+aPHKQWUmv+LEWEmQhAajNhQyEQSCUAqU1FU4kTkFrzhxlSC6k1f5YiwkwEILWZsKEQCKQSgNSmoqnECUit+cMMqYXUmj9LEWEmApDaTNhQCARSCUBqU9FU4sTBfQO0/8XdlehrUTsJqYXUFnXuIu4mBCC1TQDhNAi0SQBS2yYwXA4CXSYAqYXUdnnKobluEYDUdos02qkKAUhtVUYa/SwqAUgtpLaocxdxNyEAqW0CCKdBoE0CkNo2geFyEOgyAUgtpLbLUw7NdYsApLZbpNFOVQhAaqsy0sn9fP6BtbTmihuTT+KoEQQgtZBaIyYigsifQFmktubaZLu1/AGVvUbPpTpsNZdsxyt7zzvWP0htx9AWomLsfmD+MEFqIbXmz1JEmIlALlLrOWRZlrol+lCCKLGIJl7LPeHrbZda11SPHMuhRBXT2uY29Vj5cVSGtF8RUwAAIABJREFUa+Tafj2eE9anP/bDq4/dc+x6QYyMSo1cJ7lPIq7E/jboF3nkJAKMlfGcWB/1oJJjSuyLxlHV0LBu/6qa6yRyiR73yNH7n9BWYkwqEP1BtK6G80wUC8dcryXrY0htVnLlKAepNX8cIbWQWvNnKSLMRGCwUpskiYmepSSFhSsUYCWYutDInqgy8kB47zkJdcTr5Tp14bZd8ppJrSZpusjqj/0oouLEx5pLF8tTPO5mIqwJKvOI97HuuRTxsFwyK3mdCJwcL2VcuH5tbOr6qPEKRyf6KGmO+B8kYkKt6qpnyx9ynCClnNgfLUYhsW4DVnKCNuSp8Yl2p+kzSG1TRKW+AFJr/vBCaiG15s9SRJiJwOCk9l4lqNITEoOIiWWNM4wqq6o/jpdmCWxB+ho2HmR9g2vqsnZKpLhtGUu64HE1camSzUeOa5IV9iomceGJBo9kTPFLPHJdlxzHJddNzE/7BSL9k3U0yEymfZDQx5BFN+y0lvlOHqtoRlbGENx7TkOhlll0z+UMtx+3IzPoqm861zResXb5KaQ2AQoODZYA9qkdLMHOl4fUQmo7P8vQQk8IDEpq7/2ZLzQsVioDmSw2QiAcj5Kydn62NqEcS4dtN17fmSImUoYEVCFqrvjqv1Gm1pfSMEOnZ2f1x+FAReWwLospLkwX5MjSB5ZGKYp1fQpj4irDOIPlB4FwyuIUPLdZem2HHDU2Musq4+Z7zhzL+mMZUiWNYY/5UeSDQco1EcGPZ5OF8Mu24+OuC2rQribUPK5qLFTbYZmQjeTUIDMu5kXSBwLJJ9rvVp8hU9sqKVwHAr0hAKmF1PZm5qHVjhPIRWoTpSUWeiBqSjZ1iYtdKp9KSZT38njkXolNeDQiXYGEWZZNrhtd+6uWPliWny10vFCYhDxK2WNBCh+zNPr9iK5pTY4zJophmFxpuNZV8fBlTwmq4Ba0rcmdHnv0cXCt+rpeFzQpf7Fjag1xTACDDyF+LGE/klnoHeOuxWVVng/r4SPyurQPO4oDZ9GD7HeiMEtRdvkDls8g8TqeB3Khdt2HB73/2njL0Fu8h9S2CAqXgUCPCEBqIbU9mnpottME8pBaJari62E98+dHr4RFSKMuDvpjTTa4GAuH/ApffxwDEhdYv6j2Iy4WR4dvfkZOXa8LpVYnC5ubsO5WiaOoJxAs8dW5n7lU5wPBj8hYXPq154qdktr41+dJz3Vu2uOwUcHPX4PqS7KKT8qf+sGaLriCnsjeclXMSsWnBDQQ+SQh1NpPFsogVjmuqk5tAHgOqdjC41J++YiSajWGepl4f8I66h4l9UGNDaS2jhcOgEBJCEBqIbUlmcroRpzAoKR24Blt2UGKXMkGWSAC6VFiKc6FGTh5qb+2NSq5ccHyr40LX3DU4cxrWJtc+sBHlBxFsp6hwChh8i/2pU6LXdbK9dhBRjDaH18GI+3LQo3uldT6EqrKizjD+Hw2GmslYdo6V24nkqnVrk+VWim/PvdE3iyRdvCBIc4k/rxRX7Vz/ng0WKIh4tXO27yMJODRRGqTxVqyDOQ3EneNakEWNz6mWshNHyJT2xRRqS/APrXmDy+kFlJr/ixFhJkIDE5qB1gT1Y/FRDZQy8JFAtLkoVbjdZFStKRkyKv9+pTUycNBFjg8HpO/yHVRIVZSK2Jw/B+pKSFSBcUDJbVKMoPz/DzSN9lvmxxHywynrTlV/Q9kiqvVY9Db42ulrDpBvNEwmz9jqRUZ6vDr+LCQ/kFCyqwcB79fnKFlsYv2mUP2x03Pfot6Vf/4maw/7GsoifKcH42qL1wTkJipDWNvPVOrPsCowmE80Tkhfv1HYolKLfzgw7GF882vZP+Lu1VtaQ8gtWlkqnEcux+YP86QWkit+bMUEWYiMHipbaFZkW3094OVEhP5cZIQOJYqX7DiIhG24J9n4YoLR1iv/DFUUEq17cZ2XJBS7d/LNoXU6oIZNq4k1G8rFGchf1JCg3tRX6weKVmh4IUCpTeT9jipHbWsQLUfxMVtRyTcl2h5fbisgJlyGSnpUm41ftwZxVGlMkPxlm37ndY4a+KuS6+S+aTx1pcSaDHINiyHHPWBSBtD1Veu0+9DZE5o5TmJH46B7HdSXfUjsew7V9KioefSczOX1J8MjkBqU9FU4gSk1vxhhtRCas2fpYgwE4GuSG2myIpTKBQkP+b48+L0pI1IdUnlYvHnbVTV7qUqm64K6iKsS234wcO/NDynimZ4MPdD36CJhx1PM/7apkf+ezTtfmJTpBZIbQRH5Z5Aas0fckgtpNb8WYoIMxGA1GbChkIVJ7DwkyPItYbQeGsIzfwbm+45+QKVvYXUVntyYJ9a88cfUgupNX+WIsJMBFqR2vFvOo7+8I7j6c/vPpFuO+oLNPlDZ9Ccjw+nBcd8l+469nu4gUEl58Ckw4fSHdbRQmxZbie+4XjqO/UigtRmeitCIRDoGgFILaS2a5MNDXWXQCtSO+F9p9BZ3/o2/eiCi2jUb39Pi+cvpM0bn6Y9u16iA3v24gYGlZsD959xGU047DiRrZ32zpNp3kf+lTaOnUUH9rwKqe3uWxhaA4G2CUBqIbVtTxoUKAaBVqR24pHDaMSIETRy5EgaNWoU9fX1Ee9gMDDAux/gPxCoFoElX/oRTTzsOJr+7lNp+TlX085lj0QAIFMbwYEnIGAcAUgtpNa4SYmA8iEAqc2HI2qpBoEHz7uW5nzwqyIru/+lVxI7DalNxFKZg9in1vyhhtRCas2fpYgwEwFIbSZsKFRRAntrzzftOaS2KaJSX4DdD8wfXkgtpNb8WYoIMxGA1GbChkIgkEoAUpuKphInILXmDzOkFlJr/ixFhJkIQGozYUMhEEglAKlNRVOJE5Ba84cZUgupNX+WIsJMBCC1mbChEAikEoDUpqKpxAnsU2v+MENqIbXmz1JEmIkApDYTNhQCgVQCkNpUNDgBAkYQgNRCao2YiAgifwKQ2vyZosZqE4DUVnv80XvzCUBqIbXmz1JEmIkApDYTNhQCgVQCkNpUNDgBAkYQgNRCao2YiAgifwKQ2vyZosZqE4DUVnv8sU+t+eMPqYXUmj9LEWEmAp2UWs+xyLKSbg558WhrLtlO7KjnkO3W4ldGntdch9IvqZFra221UJ/n2A3qizSNJyCQSABSm4ilMgex+4H5Qw2phdSaP0sRYSYCxkgtEdUJZQsSWnPtOnFWIizKu+QkirVFlu2Sr8xe+jUWJDfTxKpwIUhthQefiCC15o8/pBZSa/4sRYSZCHRSauMBSQGNJ2TJc6JiKi+IHE+Wy/RMLWdpk8vE4yKC1NYzwZGsBCC1WcmVoxyk1vxxhNRCas2fpYgwE4GuSa0UVCmsKdGy+KpLUjK16csawuyrL9C+1EqZji+FUO2w1KqsbTSwuuxx9DSegUAdAUhtHZJKHcA+teYPN6QWUmv+LEWEmQh0R2plJlRb3xqJNpRKz9GuSZXatAysVo/rkhusj21JatOWKGD5QWSk8KQ5AUhtc0a4AgR6SQBSC6nt5fxD2x0k0A2plVKp1rom9MfPiHrkcPqUfzQWl8wwrUqtZGq5idazrFK6k37UlibQCZ3AIRAgIkgtpgEImE0AUgupNXuGIrrMBDovtVIYtQxsUrSclbWDpQfxnRDiz5PKJxyTUiulOrr8IJRVJdTaEoRaLdh1ISVbnNAcDoGAIACpxUQAAbMJQGohtWbPUESXmUDHpbbFtbTcAZmBtR0nur1XRGrlEoNwuy6WVj+RK8/5OHSp1RK94qQ8J34kJmQ2KBtkif2EsV8v198oy5wZPgqWkgCktpTD2nKnsE9ty6h6diGkFlLbs8mHhjtLYLBS++IjT9KKc6+hbfc8mD3QQHyVOAZiGcmsCivlrK+W8ZVZVF165TFt+UHDTK26niU5vvxAayt771CyYgQgtRUb8Fh3sftBDIiBTyG1kFoDpyVCyoNAJqldvJhW3ziZFh5zFk19++dp7j98LY9Qwjp0SeWj8efhlQ0fyWxsmMkNL5fnwiN4BAL5EIDU5sOxqLVAas0fOUgtpNb8WYoIMxFoR2ov//b3aeyJ36EJbz2RJh4+lFxrCN099NxM7aIQCJSVAKS2rCPbWr8gta1x6uVVkFpIbS/nH9ruIIFWpfbPb/403XLYMTTeGkLjraPJtY6mmR84nVZfPgo3MMAc0ObAw//xO1p+9tWpr9rt966iO46y6ayzzqLLLruMxowZQ/39/bRt2zY6cOBAajmcKAaB1/YN0L6dLxYj2IpGCamF1FZ06pe/261K7c8/PIzGvvk4cv/iUyJDy3I76Y1DacusJbRlzv24gQHmQDAH1v5sNKS2/G+d6GGBCUBqIbUFnr4IvRGBVqV2xIgRNHLkSBp9wX/R1GO+TVPeeYqQ2ylv+SwdOniwURM4BwKVIoDlB5UabnS2gAQgtZDaAk5bhNwKgXaldtSoUdTX10dPr3yE1lx1M816/5dp0mHHE3/lhv9AAATwxxcwB0DAdAKQWkit6XMU8WUkkFVq+Y8TDAz4Irv1rgdo79adGSNAMRAoFwFkass1nu32ZufydfTIT0e3WwzXd5EApBZS28Xphqa6SSAPqe1mvGgLBEwnAKk1fYQ6Gx92P+gs3zxqh9RCavOYR6jDQAKQWgMHBSEVmgCkttDDN+jgIbWDRtjxCiC1kNqOTzI00BsCkNrecEer5SUAqS3v2LbSM0htK5R6ew2kFlLb2xmI1jtGAFLbMbSouKIEILUVHfig29in1vzxh9RCas2fpYgwEwFIbSZsKAQCqQQgtalocAIEjCAAqYXUGjEREUT+BCC1+TNFjdUmAKmt9vij9+YTgNRCas2fpYgwEwFIbSZsKAQCqQQgtalocAIEjCAAqc0ktTVybYssS95scmtJ4+mRY7sUOVVzyXa8pIvDY55DDS/xHLJVgxyLQw1rjFwfNoNH5SYAqS33+KJ33ScAqe0+c5NaxD61Jo1GciyQ2ralVgqtFFmPHCG3yWJZc+2ooLYotaEwB+KsLNeXWNe1NamWcu3fy0s9J3pcrzOU4uSJgaPFJwCpLf4YogdmEYDUmjUe3Y4Gux90m3j77UFqM0utlFgpufJ5MAgsryqTa5ElM7ax41JAI0PXKFPrOWQlForUIJ5AauuZVOkIpLZKo42+doMApLYblM1tA1Jr7tjIyCC1bUsto5PZWZkJjQmtpCvv9a//UzK1nNHVM6nRx7L+oF0htfEYglikPHOUjswmy0CCez2e2Ck8LQ8BSG15xhI9MYMApNaMcehVFJDaXpFvvV1IbQaplRlQ/gpfyagmkz7+cK1rzXXCNbcNpDY5ARvWQzWXXFeuyW1FaqV0199j+UHrL5KiXgmpLerIIW5TCUBqTR2Z7sSFfWq7w3kwrUBq25VauXxAM1ApttohMSb+etoauQ7/WCxBQjURlnVEM7RSRmWmlojFtukPzYIZIeU7qU5I7WBeNsUoC6ktxjghyuIQgNQWZ6wQaTUJQGrblVopp0pI5ZrahK/6WUBtmxyxU0F8J4T48xYnoJLaBEnmNbzSrIMlBpElCLVasBNDxrZbDBGXmUEAUmvGOCCK8hCA1JZnLNGTchKA1LYttTwR4kKZILTBfFEZWMeJbe+li2W4xEBJqFr3Gp4TVepSq8RaNaayuLIe/z4QbxZeWV4Id2y7saAa3JWDAKS2HOOIXphDAFJrzlggEhBIIgCpTZHal5/YRC+sfJQOHTyYxK35MZZGPXNaJ8JyRwQWTk2KpXTy9VJa1TF9+UFcrIOlCiJTG5ZVUq3txCCTuc07gSuKTABSW+TRQ+wmEoDUmjgq3YsJ+9R2j3XWliC1Mal9asrd1HfKBTT1HSfTo79xs3JNKBeKpn8y/jyhSNIhJbgJ5dW5pII4VjUCkNqqjTj622kCkNpOEza7fux+YPb4cHSQ2gsvpN//189pxvD/pKnvOZUmH/4ZmvKWz9Iz7nzzRw8RgkADApDaBnBwCgQyEIDUZoBWoiKQWvMHs9JSe8mJp9Mf//okuv2IoeRaQ2i8NYQmv/kEWv3jP9LWRctxA4NCz4HNk++mxUPPSX0X2vNMjSYeOYxGjBhBI0eOpFGjRlFfXx/VajUaGBhILYcTIFBVApDaqo68329IrfnjX2mp/cUHTqJbX/cpcv/nJ4TQ3mENoYlvHEorL76eVv3od7iBQaHnwOO/uxNSa/57MCIsEAFIbYEGqwOhYp/aDkDNucpKS+3w4cNp5Pf+jW487Rya8H9OpclvOVHI7dS3fY4O7kOmKue5huq6TADLD7oMHM2VngCktvRDjA4WnEDlpfZC7Ydij0ycR0u+cilNf9cwmnT4Z2jgpd0FH16EX2UCkNoqjz763gkCkNpOUEWdIJAfAUitJrWbNm2ivXv30t6tz9OGa2+nh/7999m39MpvjFATCGQiAKnNhA2FQCCVAKQ2FQ1OgIARBCC1CVJrxMggCBAYJAFI7SABojgIxAhAamNAKvYU+9SaP+CQWkit+bMUEWYiAKnNhA2FQCCVAKQ2FU0lTmD3A/OHGVILqTV/liLCTAQgtZmwoRAIpBKA1KaiqcQJSK35wwyphdSaP0sRYSYCkNpM2FAIBFIJQGpT0VTiBKTW/GGG1EJqzZ+liDATAUhtJmwoBAKpBCC1qWgqcQL71Jo/zJBaSK35sxQRZiIAqc2EDYVAIJUApDYVDU6AgBEEILXdklrPIdutGTHoeQXhORY5nl6bR47lUOSQfronj2vk2h2KqeaSbbuUOKqeE2PTuPM116673nNsGsyUgdQ2Zo6zINAuAUhtu8RwPQh0lwCkNlFqWc4ssuQtRVxY6tQ18lr9Xi+nSS0LTFguKi66yMjHScLD00SeT44jReQ8hyw9rth8i8am9y8ap1+MhVGKbZo8euTE20sQvuQ+NGufiFgsLRlDrDPB05rrBHIYG1ceq8DKJUuihGsaiHpYLt52yCO1b5FPBHx9yDhtzOOtNHoOqW1EB+dAoH0CkNr2maEECHSTAKS2TmqfEqIWSmcgVhEBaWWIpMz54qfqs13ytKxcvRQFcuM6mvhqcicEMSpejifbCuJi0QviTZdUrU5LlykpgNE+hmIobDo5Nk3ow6y0jC0as+IRtC04eGHc0dbZXRPi0gSdxTE6RDHuHFsg11FhjF4nWGr98OMMPiAEAh3GrjOUj0OWQrijQfEnkVic3Df9Q46sR95r9cWhNHkOqW0CCKdBoE0CkNo2gZXscuxTa/6AQmrjUvvUrSLzJzN4PIR+pi2W+WwiOHHRZHGRoqdLVb3U1k8a/Xr9bKRsEI9t20re9Gv9DKQmSCyEceESic8EeUw7XnPJ0b4fr4uT21CC6JCbIG+SiYi1AdPIdTKbGotfjFPSsSCGJGGVl4cspYRLeiy9sbEnX4RlWRbVJJayhsh9itSqurhv4ZNkmY9UmP4EUpvOBmdAIAsBSG0WauUpg90PzB9LSG1cavfeE116oKRME8KWxjUqR/IraPYVXf5CmdIyoI4XiLTM1kXvpfPIsrJuzkR6vMwhiFmKoDqv+pJcH3eLYwtFVL8uof/NpFZwCjkk1S1j9C9tvu7YryNZkDlux2GRDmLVBNJzWEzDWGRfIyxdzqImZZR1qfXPy3Iibv6fEHh5nawjgZkWkyybxCUcg4Q6ZMEm95DaJoBwGgTaJACpbRNYyS6H1Jo/oJDaOqndy2anxNBy3GA5QoJcRDKRgQCq9aOaQLH82Zyp9ch1ePlBmA2VYhpOFT1TJ+tIyhbKDLIel7w+rI0f+UIXiJdv1WQniF+0VNqz6Nf1oXzpAhx+1S8yxNrX/vHrdaltKHd1FinjS+4zcTaVxy5Y9+wXD64NZJzbU8dZ+NVYx/rC50QfuO8+b8WUw+D5IrlqcdaPrT8G2iWiE2Ec/FQff646nCuyx63eQ2pbJYXrQKA1ApDa1jiV9SpIrfkjC6lNklp93KS4KlnVTmo//vKP+iLl/xo+lC0hN26YhdRlR3/s16FLjawjlFpfcqKZwDQZlPLEApb01b/MbMrr4vXw8egxXaB9QYtLqawrpOT3wU2JQS8flok/0pnEY4oLaDRGz/V3J/CXJjj+j9YiUuuzddROA/XM49GI51JkxVKEaJvy+vqxTZfauOyHz5Prlm00uofUNqKDcyDQPgFIbfvMylTi4N59tG/HrjJ1qXR9gdQmSG3S1/X1suYLSigf6Zlaz/PE19O+wIWCyrPJFx/9WChwYQYvPK+Lkv9YCm5c7vRf9vtfi+tl1Q+WtK/Dw/Z8cfSlNswUxrOGkfqCpQtxTlKK/WUBCTFaFtnurJQlH3y9Ta4XXbsbfRVKCY0eTdrFQK1zDj6M6P1VfYnIahhvonwHH3jifZaRyDojWV2Nt7wueh+Of/R4+88gte0zQwkQaEQAUtuIDs6BQO8JQGpbkNo0aWExTJQdMa4x2ZLXsghpFfriE2Z4faH2M6t63Uq0tYyxlKZwGsXaDE5IqVJ1BGtrRRiaZOmSJx/rIqs/FmtItVi4KVlGxaMEUR5hOQ92KRBCKNegyvMp95KdOh2IvN+BYMsw/Vhwoda+io2PBf2P8vUzosyUs7ZiqUjdD8RUAMGaZ1+4uT69LnmV5K0Nt/hwoz/nuOo+GAXxhcezZWshtXIkcA8C+RCA1ObDEbWAQKcIQGoTpHYwsHVJiYiOEDOv7pf06no2HfXDqwbZV7EW1pdDq27/1MZSG+mXJndSslQsmvRGjwVyxWVjQst187WyrkhbwTn1Ay510u9nYhktvki5yPEwkxoKoFz/KhpVAsvn/WxxKNKib86sYM109INEtN9BnVrb8ZjD66WAct/CtqTgRvqiOOgPWsvU7tv5ol4o8TGkNhELDoJAZgKQ2szoUBAEukIAUpuz1HZl1DrUiC6l8rGendUfdygEVBv7oVgakHXOWJrz/86gJ8fMoP0v7k68DFKbiAUHQSAzAUhtZnSlKLhzxTpa+/ObS9GXsnYCUgupLevcLn2/lp15BU18w3E0/T1foOVnO/T80jWRPkNqIzjwBAQGTQBSO2iEha4Aux+YP3yQWkit+bMUEaYSWH7u1TTx9Z+m8dYQmv6uYTTvw9+kjTfPpIOv7iNIbSo2nACBTAQgtZmwlaYQpNb8oays1E5+x+foT289jka//TN023tPpokf+BLN/Mev0dyP/ivN/6dv4QYGhZkDk484kVxriBBbltsJr/s0Lfj4dyC15r//IsKCEYDUFmzAcg4XUpsz0A5UV1mpnX6kTcOHD6cLkantwLRCld0isOLcq2nS/z5WCO20d55C8z7yr7Rx7Cxkars1AGinUgQgtZUa7rrOYp/aOiTGHYDUQmqNm5QIqDUC/d/4MU067Dia9u5Tafk5V9POZY9ECmL5QQQHnoDAoAlAageNEBWAQEcJQGohtR2dYKi8MwQ2TbqbZv3ff6anbplN+19+JbERSG0iFhwEgcwEILWZ0aEgCHSFAKQWUtuViYZG8iXw8qNPN60QUtsUES4AgbYIQGrbwoWLQaDrBCC1kNquTzo02B0CkNrucEYr1SEAqa3OWCf1FPvUJlEx6xikFlJr1oxENLkRgNTmhhIVgYAgAKmt9kTA7gfmjz+kFlJr/ixFhJkIQGozYUMhEEglAKlNRVOJE5Ba84cZUgupNX+WIsJMBCC1mbChEAikEoDUpqKpxAlIrfnDDKmF1Jo/SxFhJgKQ2kzYUAgEUglAalPRVOIE9qk1f5ghtZBa82cpIsxEAFKbCRsKgUAqAUhtKhqcAAEjCEBqIbVGTEQEkT+BIkut51jkeElMauQ6LtWSTiUe88ixY9fXXLKTK0+sIf1gjVzbocQwPScl/vTacMZ8ApBa88cIEVabAKQWUlvtV0CJez94qfXIsSyyxC0ub/o5i6w0SdQEsubaQV2yTotsN0VPtXJ1Q+Q5fjm+RsUX1mlZNkWq9RwtvgTJJSKOTe+CiFU/wEGktpfctuf4zJL6HcYYinHydQ0Y1YHBgU4TgNR2mjDqB4HBEYDUQmoHN4NQ2lgCg5PaZ8i1LbJshxy+t3SpjQltIJZ1gsoyKaXTdslrILWcmVXXyjLxe00yPScmrpSUwU2OU7Wj6vPIUY+JKJBglsyGfYrHZ8UEtOaSE7HrtKnCcep8/evq+5hWHse7RQBS2y3SZraDfWrNHBc9KkgtpFafD3hcIgKDk9qBgARnEmNSK2VViqB8Hv+an2vQMq4sibKIqFxmXHXmXJeqh9uOy6t+sf44RWpVXRyKo2VwQ5Gtua5YQsAS6Ti21j77bSwLHYk5zLKm9kcPsdljyTEmy3Vi3awenO8YAUhtx9AWomLsfmD+MEFqIbXmz1JEmIlAp6RWfk0eCqrMiNZnG32pdcU62EaZWu6gqFeTUL/TvlRLsZNt1y93SJHamCCqLC0f5w5oSwocj5cmyMx0mDm2bTtcvpAinrJeP075QcAm10tbIuG3L/sjymnCLJcucHytZXszTREUapMApLZNYCW7HFJr/oBCaiG15s9SRJiJgAlS60ubTa6rLUWIiaaQY5bFQDJ1iZNfwct7AULL/oZgUqRWk+S0TG1b4tiS1PpRRdrjmLVYwrj9bLboc0rdUugjZfCkJwQgtT3BbkyjkFpjhiI1EEgtpDZ1cuBEsQl0WmpVtlTKWFzaOPPo8M3fH4AFVwpsI1FTAitFNz4M7UhtTKBlRlXci2BkVjVYYqFlbtW1sl9J5yL1RzPVodTqwp2wflZmYyXHSJ2xdbpxFnjeVQKQ2q7iNq4x7FNr3JDUBQSphdTWTQocKAeBTkmt/pW9Ej8rZQsuTUAjsqrELSqCPvlANKVMxodD1illUJzXxTFeIKg1sqY2+Zr6rG20Xr8PwQ4KkfaDH5hpOy/4UqtLc7ikgbkFri+WQMhMrZR9LD9IGZ8eH4bU9ngA0DwINCEAqYXUNpkiOF1UAh2TWgYSy1pKGatjpQkoZ21TanSEAAAgAElEQVTFr/y1taOJ17PwOp7/I62EXQFU2xHpjconkVznGxVJXcLFY+dGbdsyixw3voZVr1duBybv/XXALKdKYF25a63ffioX1XEpvQ55GheWWjfYLULJryqDB70iAKntFXm0CwKtEYDUQmpbmym4qnAE8pHaQXQ7+DrdZlFUclovmyxtakuviKhy29r1gd3xMgYli7pcN7G/cDlAgz7p9clssoxJ+4MKKl55jexfcI3MtMofgtXJdCDuvH2YCDup3XjdDcLGqcEROHTgIK268Ne04bpxtHfbztTKILWpaHACBIwgAKmF1BoxERFE/gR6LrX5d2lQNbYqtfoP1Shx/9tBhYHChhLYt2MXTX7zCTT9XcPI+/rltL1vZV2kkNo6JJU6gH1qzR9uSC2k1vxZiggzEYDUZsKGQhUmcGD3Hpr6js/TeGsITf3Lk2jOB79GG351h8reQmorPDmICLsfmD/+kFpIrfmzFBFmItCK1E74yxPo6n84hX5z9Jdp7Ge/QzPOuITuO/cqWnHhr2jVJdfjBgaVmwMPnn8dTTp8KLnW0UJuJ7zu00JwH/zhtQSpzfRWVJpCkFrzhxJSC6k1f5YiwkwEWpHaie/5HF1yyhn006+eRaMv+gktvH4MrZ+8gJ5buJS2LV6BGxhUbg48dMn1NOWtnxVCO946mqa/51RaYl9CW+9eAanN9E5UnkKQWvPHElILqTV/liLCTARaktojh9GIESNo5MiRNGrUKOrr66NarUYDA/LP5GZqGoVAoJAEnrxxGk1960k06Y1Dadb7v0zrrrmF9mzepvqCTK1CUckH2KfW/GGH1EJqzZ+liDATAUhtJmwoVFECj/z3aJr2jpNFVra2cFkiBUhtIhYcBAFjCEBqIbXGTEYEki8BSG2+PFFbiQkcOkT8y/ZXtaxsUm8htUlUcAwEzCEAqYXUmjMbEUmuBCC1ueJEZSCANbWYAyBgOAFILaTW8CmK8LISgNRmJYdyIJBMAJnaZC5VOYp9as0faUgtpNb8WYoIMxGA1GbChkIgkEoAUpuKphInsPuB+cMMqYXUmj9LEWEmApDaTNhQCARSCUBqU9FU4gSk1vxhhtRCas2fpYgwEwFIbSZsKAQCqQQgtaloKnECUmv+MENqIbXmz1JEmIkApDYTNhQCgVQCkNpUNJU4gX1qzR9mSC2k1vxZiggzESiC1HqOQ16m3qUVqpHruFRLO1133CPHjl1fc8l28o2qrlkcKCQBSG0hhw1BV4gApBZSW6HpXq2udl5qPXIsiyxxi8tpo3PaOCiBrJFry7r0+6Bezwna0c/pj21ypcl6Dtn8hOtW8aVcy6Fw3UpiEyRXhMvxaX2UbWhdiT/0HC2m+Ek8LyQBSG0hhw1BV4gApBZSW6HpXq2udlZqAwm1HXKEjGrCR43O1Y+BL38xaYxf1kQia64TSq3w1LhQJmVwdfHWpTd4rETXF1/bdTWJj12vsr2N6ozHFO8knptOAFJr+gghvqoTgNRCaqv+Giht/zsrtRJbILCWLrWtnJPXyHtZT0wWpVgqqY1Lo99uXGplreF9itQqGeXEri7GHjmybSHprQppPD69P63WEUaNR2YRgNSaNR7djuaFB9fTWmdst5tFe20QgNRCatuYLri0SASMl1q5pEDII0utTbatiZ8SWZkp5fUFumzyyoGo1NZc21+moIRUjliK1CYuT4hmav06/bhU/bFyYXNpyxc4Vq1vMizcF4oApLZQw5V7sNj9IHekuVcIqYXU5j6pUKEZBIyXWoFJSqqUQV9u3Zp8HrBUgiuv94/HpVYcVet0g7L+wYQfkEXbSMvUeq5LbiCkLUltTHj9NccsypBafUSK+BhSW8RRyy9mSG1+LDtVE6QWUtupuYV6e0ygUFKrpJXUD7zC7GfrmVqBvB2pTRVQS/vxWDtZViw/6PG072jzkNqO4jW+ckit8UNEkFpIrfmzFBFmIlAcqXXDnQXEjgW8pEBmbIOuK+mNS2N0+YG4WkptzSVHbYmQtPwgijWaqY2ek0sHkjO1YQbWvy6WAa4F2zKoPkTrxrPiEIDUFmesOhHpwVf30b5tOztRNerMiQCkFlKb01RCNaYRKILU1q1X1X64JdbPyh+gNRHCiJAKMbbIitQVl9q4HOs/6NIeB+liXWojGWSRRJZSK2U2uA/i4Ou5n/JebDdm2mRBPC0RgNS2hAkXgUDPCEBqIbU9m3xouLME8pDa2vyl9Opz2zsTqMqkNhLMQBjlj8pSlwtIsfQFUomjFFwuF7fRWK8iYhw7p0ttuEZWym8Yo99u0k4OfkY5Vi2eFowApLZgA4ZwK0cAUguprdykr0qHs0rtU8tX0+orb6KZR36JJh52PB06cLD3yNrJ1GaMtlWpjbuxFN6MzaJYgQhAags0WAi1kgQgtZDaSk78KnS6Xakd/cPLaconv0VT3zWMXGsITT7ixCpgQh9BoGUCkNqWUZXyQuxTa/6wQmohtebPUkSYiUCrUvvzfzyFxr7pWHJf9ykabw0RQjvxDUNp88wluIEB5oA2B9ZeeSMtP/vq1Nfj9ntX0R1H2XTWWWfRZZddRmPGjKH+/n7atm0bHThwILUcThSDAHY/MH+cILWQWvNnKSLMRKBVqf3zEcfSrYcdI4SWpZZvM486ndZccSNuYIA5oM2B1Zf+DlKb6d2oHIUgteaPI6QWUmv+LEWEmQi0KrUjRoygy0f8G409aQTd+ZYTaeIbh4ps7aLjzsnULgqBQFkJYPlBWUe2tX5Balvj1MurILWQ2l7OP7TdQQLtSO3IkSNp1KhR1NfXR6tvmkp3HXs2TX3b52jO33+1gxGiahAoFgFIbbHGK+9osU9t3kTzrw9SC6nNf1ahRiMIZJXaWq1GAwMD9NL6p+jB866l7X0rjegPggCBXhOA1PZ6BNA+CDQmAKmF1DaeIThbWAKDldrCdhyBg0CHCEBqOwQW1YJATgQgtZDanKYSqjGNAKTWtBFBPEUnAKkt+ggi/rITgNRCass+xyvbP0htZYceHe8QAUhth8AWpFrsU2v+QEFqIbXmz1JEmIkApDYTNhQCgVQCkNpUNJU4gd0PzB9mSC2k1vxZiggzEYDUZsKGQiCQSgBSm4qmEicgteYPM6QWUmv+LEWEmQhAajNhQyEQSCUAqU1FU4kTkFrzhxlS20Gp9Ryb3Jo+CTxyLIscTz9WpMceObZLkS4VKfyKxQqprdiAo7sdJwCp7ThioxvAPrVGD48IDlKbIrWeY5Fl+be4hOrnLCsurnLQa+TaDoX+ys9ZaFls9ePyeiKuN95WeLb+Udr1NddWsXN8jqM/5z5p7XsO2YF5KwmvuWTr16imdan1BV0ystJkl+tq2Cm9TtUQqVjCQ3jUJgFIbZvAcDkINCEAqW0CCKdBoMcEILUJUutLYSiDupNFhTEQ3zqhiwmf4wZCG4y251CaBDaSuahMh9KtxNKylKASeeTIwCNiWSPXCbOtniMFNy7hUfmO91uKsN+jsM5WYtQ/CHC90br8Ghtx6PFrpjDNQ2oLM1QItCAEILUFGSiEWVkCkNoEqZWzQYqcdEM+XnNdLfsq5VWKoSwpLiRHZEBZFm1yXac+e6pXLIuy8CYdJ87k6llhP/MrhFBKspZ1Jc8Nlz7U3CAWPS7RGyHbuhQnPQ7DSc6qEoVSK7uh7iNCrY4GD5ifTa7HmeFmkh4vi+fNCEBqmxHCeRBojwCktj1euBoEuk0AUtum1EYGSHxNbyVKKAux44Rf7UfKNXjC4mqzBCctXBXtOeQpeQ2kmq0zJo8qY8pZZHW9MOPkJQ76NXXxSXnXxDPIPisJ1rLVqu0kUQ0NWSy30LO2erNRgdfP4HGrBCC1rZLCdSDQGgFIbWucynoV9qk1f2QhtZmk1s+SCqHTZE4fbvG1vhRFzqTG1ucK6Q0X3PpFpZjKe71CflyrkRdZLxtkiOX1MssrM7e8BCGQWtm+vI9/5Z8sovVyHcpmLDsr+xrEnNQ/biN02hq5rqeyz3y9HlPYThwCnrdKAFLbKilcBwKtEYDUtsaprFdh9wPzRxZS27bUyqxlwpIDNd6a9PJuB44utb5ospyGgucX1KVPfxycFTsn+OIXrZ9FVa/Lcx1yxLrZlOUCMQEVWV5blpGdiJUNljAo+eVMrbY2lzwnEoNYkqD9UC4uraoVbUmFfg2kVhLKfg+pzc4OJUEgiQCkNolKdY5Bas0fa0htm1KrpC7y1XqK4Ep5DITPz14mSy2fi66lZXlOqTeYV359SZNMZlG5LYccW1s2wGtYXX1ZBAtykJHljK/IPCe0HfQllM24WNdndcWP1SyW5eQlGhx5WF+0H2nHo1fhWSMCkNpGdHAOBNonAKltn1mZSkBqzR9NSG1bUhsXOSmLcfmU2Vz/PK+RlV/7iy29bFcsI5DZVSG0ScsY1DICOZGkrPrPI1IrlyCIU1qcCfXq5VjS9a/9RSws7DK4oOlQ5pPkVcYXvQ/LWG3v9gCpjbLM8gxSm4UayoBAOgFIbTqbKpzBPrXmjzKktoHUDnr4EjO1fq1KLOvENdYqn1cZW01WI5niQK6ViEr5jS4hUMIq99YNRDg8rgmuaJfrZYmV9fl76UpBj9+zHOt1qXC4S9yWijn8EBCXVyXCCTIeI1Ppp3u37Wzaf0htU0S4AATaIgCpbQsXLgaBrhOA1HZLaoN1tf4fX5Cy2PXxRoMlIbD2ytE07T2n0vprbqU9m7Yl9gpSm4gFB0EgMwFIbWZ0KAgCXSEAqe2k1HZlCNFIVQmsOO+XdOf/+iTNeO8X6F77EqotXBZBAamN4MATEBg0AUjtoBGiAhDoKIHqSu37bPruN8+kS37wQ/rdL6+jhTNn09MbHqPdO3bSgd17cAODQsyBledfSxNffwy51tE06fDjaeb7v0zrrrmFBna+SJDajr53ovIKEoDUVnDQtS5jn1oNhqEPKyu1U/7qc3TDO46nP737RLr1qC/QpA+dQXM+8W1aeOz3aNHx5+AGBoWZA1Pf9jkhteOto8m1htCE13+a5n3sTEitoW+6CKu4BCC1xR27PCLH7gd5UOxsHZWV2ulH2jR8+HC6EMsPOjvDUHtHCXjfuoImHnYsjbeG0PT3fIEWHXs2PTtpkWgTmdqOokflFSQAqa3goGtdhtRqMAx9CKmF1Bo6NRFWMwJLTruEphxxAk171zBaddFv6KW1GyNFILURHHgCAoMmAKkdNMJCVwCpNX/4ILWQWvNnKSKsI/DIz26ihZ/4Dj07cREdOniw7jwfgNQmYsFBEMhMAFKbGV0pCmKfWvOHEVILqTV/liLCOgL7X3ql7lj8AKQ2TgTPQWBwBCC1g+OH0iDQaQKQWkhtp+cY6u8RAUhtj8Cj2dISgNSWdmjRsZIQgNRCaksyldGNOAFIbZwInoPA4AhAagfHD6VBoNMEILWQ2k7PMdTfIwKQ2h6BR7OlJQCpLe3QttSxF1ZuoHXX3NrStbioNwQgtZDa3sw8tNpxApDajiNGAxUjAKmt2IDHuovdD2JADHwKqYXUGjgtEVIeBCC1eVBEHSAQEoDUhiyq+AhSa/6oQ2ohtebPUkSYiQCkNhM2FAKBVAKQ2lQ0lTgBqTV/mCG1kFrzZykizESgnFJbI9dxqdYyEY8cO3Z9zSXb8VquAReCgCQAqZUkqnl/YM9e2lt7vpqdL0ivIbWQ2oJMVYTZLoHBS61HjmWRJW4ORTTQc4Lj/nnbbUUzEwQz0qn/396ZgMtRlXm/v+f7HkdnFJ3hc8bRUWd0XGY+R2dEMiqrLIogtKKjIgRR1mBYgqLMAJOAMYVACINGIyEhCSR1s1xuckMWQkL2WyHbzU52ktwknZvtkn3P+z3vqTpVp6qruvv27eVU1f8+Tz1VXXXqnFO/c6r7d98+dTpHZjZQDhHlzCz5HNQySJTHcurWT9aT11nyVYfr6mZQrA6+CuEFCPgIQGp9OPACBLQjAKmF1GrXKVGhyhDomtRuJTOboUzWIIPXGb9sWoYqkfa2641O9VlGbSHOT6vud8/zyafHIE9qicgyAuJKYRFcVcpD6uAW7JWFLRAoRABSW4gOjoFA/QlAaiG19e+FqEFVCHRNak84deLoKQthQGpN7yt9W16Dkhl2SYWipHY5hlVARAtKaITUKkMPcqahRHAtMgrmF1Z/7Es7AUht2nsArl93ApBaSK3ufRT1K5NANaWWAl/9Rw0/KBit9QmnHdUN80w1Uuvml5cwQmpDhyc4Udu8PMoEjdNSQwBSm5qmDr1QzFMbikWrnZBaSK1WHRKVqRyBWkptMJLruwo5BlbZyXKqirBlmmTJsbOBYQiq1IosQh/0ipBanzgjUqs0ATbLIACpLQNagk7B7Af6NyakFlKrfy9FDcsiUD2ptchUn8SSD40ViHz6xsAGpFVenE9elTS+/Zy4M1KLSK3Ei3UFCEBqKwAxxllAavVvPEgtpFb/XooalkWgmlLrzYrgPYClRl7zK8xjZrNkGFnKKNFTNV2evDoH8/ZLqc2ZZLhyHRapVXNnF1Yjtf5jeAUCpRCA1JZCKblpILX6ty2kFlKrfy9FDcsiUD2plQ+PlSq09rRc3owH/ofO5MXlyatzIG+/HM/rk+Og1BZ44EyN3haILst6YQ0CkgCkVpJI5xrz1Orf7pBaSK3+vRQ1LItAZaS2rKLtk+SwhEzGN36WSBVOb9aEoLzy67A5cnm/GxWWgsuiWkRQEantQlum4FTrpt606rEX6ODGtsirhdRGosEBENCCAKQWUqtFR0QlKk+g7lJb+UvqUo6Q2i7hS/zJZ0+fpnHvvZSa/z5Ls755P+14dV7eNUNq85BgBwhoRQBSC6nVqkOiMpUjAKmtHEvklB4Cr5x7JTVkulHjBy4TgrvqcS96C6lNTz/AlcaTAKQWUhvPnotaFyVQitSO/r+X0VOfvYqe+0KWhl3UnSZcdy/N6v4oWbf1pYV3GljAIJV9YOw5XyMz003ILa+b/uYqWnR7P4LUFn3bSXQCzFOrf/NCaiG1+vdS1LAsAqVI7ZiPfYPuz95AvW++iwb/V1+aPngkrX9tLu2yltO+xWuwgEHq+kDrz/+Hmv76G2RmzqfRf3YBNX3om/TmTx6nvQtXQWrLeidKzkmY/UD/toTUQmr176WoYVkESpHasZ+8hm699VZ68MEHadCgQTR79mzK5XJ04oT8mdyyisZJIBBLAuuebaCmD36deAjC1H+7iTYMHEsnDxx2rwWRWhdFKjcgtfo3O6QWUqt/L0UNyyIAqS0LG05KKYGVvZ+npr++yo7KLlgZSgFSG4olNTshtfo3NaQWUqt/L0UNyyIAqS0LG05KKYF3Vm2iE+8cKnj1kNqCeBJ/EPPU6t/EkFpIrf69FDUsiwCktixsOAkEIglAaiPR4AAIaEEAUgup1aIjohKVJwCprTxT5JhuApDadLc/rl5/ApBaSK3+vRQ1LIsApLYsbDgJBCIJQGoj0eAACGhBAFILqdWiI6ISlScAqa08U+SYbgKQ2nS3P+ap1b/9IbWQWv17KWpYFgFIbVnYcBIIRBKA1EaiScUBzH6gfzNDaiG1+vdS1LAsApDasrDhJBCIJACpjUSTigOQWv2bGVILqdW/l6KGZRHQUWotwyCrrKup7Uk5M0uGr6I5MrPxqHttSaWrNEhtuto7eLWQ2iAR/V5DaiG1+vVK1KgiBCovtRYZmQxlxBIleDJNxPGcSVlhiyyJMi917ZxnGU456jF1O0tmLgSTm3/IMbHLIiNrUvBUy1DzCxPYsH1ExOW5TNT62dt+MY6qE/bHhQCkNi4tVZ16Yp7a6nCtZK6QWkhtJfsT8tKIQGWl1pHQrEGGkNFwabUMKXbhxxmPLZARkij5WQZlQ63VTpAzDSG1Xnmy3LC1J6wcgQ3L1ye1OZMMp+zI/KUYK2mJ/NeUH+2VF4d1XAlAauPacqh3WghAaiG1aenrqbvOykqtxOfIbSZfWlniMpksZQtIr8zFFsAQAZWhTVdqZeRXprXLlVLr5edsFYzUcl5ZMq3o6CoLrxwi4ZdSv7C65SJS66JIwwakNg2tjGuMMwFILaQ2zv0XdS9AoKZSK4YLcEQ0WnpJDilwhx+wAHtRVD7uRlHdbYsMKboiypsvtZHRVB4W4DuXxVgpT2HnRWo9iRZ1iZBWt56I1CoUk78JqU1+G+MK400AUgupjXcPRu0jCdRMah1Ztf2xgNSKmkpJlWNbOT2LpnztXE4npJbP8EdV7TxYdj2nzZFpWs7QBzu9K6bukAinbLLILDD0QaYS6wjptccdq+X7zsKLmBKA1Ma04SpUbcxTWyGQVcwGUguprWL3Qtb1JFAbqZUSK4cH+NeeVEoSjtS60uo9bOVL6x6XEmyf7w0NsMfUylzDxrOq0irTeRFZv9h6+/3XY1he5FaKKq9FXYsIrUzvuy5ZEaxjSQBSG8tmq1ilMftBxVBWLSNILaS2ap0LGdeXQG2kNniNUgrzx9zaKVlSTW96LCGGnFZGbJ38VKn1zS6QP/zAqwELqEEGP6wWYZKevHpn8VbUfqJABDkiKmyn44fospQ18mdX8JeGV3ElAKmNa8tVpt6Q2spwrGYukFpIbTX7F/KuIwEdpVY+TMbf7ottOYuA4GRLqZge1pXacIBhD4r5xtb68vXyiJLX4H67nhnKmmbeFGDBoQ52uVLMDbKcCG6EV3uVwVbsCEBqY9dkFa0wpLaiOKuSGaQWUluVjoVM60+g01L7hz/S1D6/o01zF9OJEycqfwHuQ1XhX+nbX9c7D3LJh8p8UVp1aIOdTsqnOyRA1to3NMCLGgfl1RVhV4LtunlDF8Lrqg4/8OSVo81qWXZ9veOycljHlQCkNq4tV5l6Y57aynCsZi6QWkhtNfsX8q4jgVKl9t7rb6Rnv/QdGvn+S2jMuZfTzu3bqyO1nWFRRqS2M9mXnrbU4Qeco19qSy8DKeNCAFIbl5ZCPdNKAFILqU1r30/8dReU2rNnaeOgRmp49wX04l9cQGamG4380JU0e/ZsyuVy9ZfaxLcOLjCOBCC1cWw11DlNBCC1kNo09fdUXStL7eTP/ZDaxs3wLW9cdjc1/uUVNPbPL6KGTDdqyJxPI957IQ297Zf0Wu//oRWDxtCmlybRVvM1LGCAPqD0gTdv6UNT/uWH1NrrGbHwP4bq/bX610No1KeydPvtt9PDDz9MQ4cOpZaWFmpvb6dTp06l6v0nCRd7ZMsWWvrAgILLlpen0pkzZ9wlCdcd52uA1EJq49x/UfcCBI607aFZ195L07/+M3r1gp/SmM99j0Z85Eoa9Z4LaNT/+bIjtCy13Wj4By6hYf9xD03p2ZcW9RlEq58cQWv7j8QCBugDSh9Yel9/mvzP36eJn76eXvn768j85LU04qPfoOGfuY5GfPpasQw877t011130SOPPELDhg2jBQsWQGoLvE/pfGjLS1No8me+T6t//YJYVj0+mFb1ed59vfhOg6b+24104MABOnToEB07dkz888KSi7/6EIDUQmrr0/NQak0I8Jvs1q1bafr06fTcw4/Tg1+4knr27En3dv8p9f33LA095yJ66V224I785LWIKtWkVVBIXAmwrLC8bNy4kaZMmUJP3/0L+sVXvkV33323ENk777xTrHv16kV9+/alUaNG0aJFi2jPnj2I1Maw0VlqW254OLLm/GMMUz5/I61du5Y2b94shm6x4CIqH4ms6gcgtZDaqncyFFA/Aiy1O3bsENGi4U88S33//dv0+OOP06OPPiqW3r17U/9b7qPhn/8uNfzl12jc311D+/buxZty/ZoMJWtMgKX2yJEj4h/FuXPn0uBfPU6/vuwHefdUv379aNCgQTRp0iRatWoVdXR04J7SuF2jqlaK1Db/8/epublZBA5aW1upra1N9BFEa6OoVnc/pBZSW90ehtzrSoAjBvv27RORhKlDRtGgy38sokcvvfQSyaWhoYEmTpxI85un0vyf96dt0xeI8WF1rTgKBwFNCfB0dxx5ZVltfuqP9Pz1d9PLL7/s3k98X40ePVpEcjlKy9+UsAhDcjRt0ALVKkVqGz91PT399NM0ZMgQ0eZr1qzBPzEFmFb7EKQWUlvtPob860iAP0g5WssfwhtWv0WLps2iJUuWiK9E+QOXtzm6wG/E/OHLESX+0MYHcB0bDUVrTYD/UWRJ5Ye/3lq2gha/MSfvnlq+fLn4R5KjdrintG7OgpUrRWrHfiJLDzzwAHF0HsNNCuKsyUFILaS2Jh0NhdSPAH8Is9jyWED+gOXILUuuXPg17+cPaght/doJJceDAP/DV8o9xWMrcU/Fo02jalmK1I7+h2vdBwPV2S6q8gM2URXFfpcApBZS63YGbCSXAH8Qyw9j/kAOWxCdTW7748oqTwD3VOWZ6pZjqVJ722230UMPPUSDBw+mefPmYa7vOjYkpBZSW8fuh6JBAARAAARAQE8CkFo926VQrSC1kNpC/QPHEkTgwLqttOqxwQm6IlwKCNSXwB5rBa3/3Zj6VgKlV40ApLZqaKuWMaQWUlu1zoWM9SLQsWw9vXlrX70qhdqAQIwJ5KYtoGX/OTDGV4CqFyIAqS1ER89jkFpIrZ49E7WqOAFIbcWRIsOUE6iJ1FoGZc2cQ9oiI2tSLmeS4e5LaCNYBhlW6deWM7N56S0jS13BBKktnb8uKSG1kFpd+iLqUWUCkNoqA0b2qSNQVGpzJmUzGcrwwjKqEGIJE/vl8UwmT8pEckVqLcNLExQ2v9RZZKhGqOShVMHe5DqqaYMJQs915DqYVn3tSKlaZ/Wwtx2oq3sgR2bWIPZaziPISrz21ZvTexLr5+Fm2qkNSG2ncGmRGFILqdWiI6IS1Sdw+uhxOrJtV/ULQgkgkBICJw8epqM790RcrUUGC6th2OsypNYnvtmsJ8iKCLPc2W7nSaCokIx0BqQ1UhB9eUo59Iuid6GlSa0dYVbqZUtCpYcAACAASURBVBl+ORUVj5JaIgrU3XddXmXIx8l3HSzD8lqUE0rchNSWCEqjZJBaSK1G3RFVAQEQAIGkEXDkNiC1tlzakciCVywipWZAjCOk0jLJzDnl5cmdlN9AaWHiKJOwhGZNskKiynbkVAoji2tENFXWw71+T3JDBdtNJysRWEtZV3b7o7J+Sc6ZRtlDECC1CuSYbEJqIbUx6aqoJgiAAAjEkUAhqVVE0PdVunKd7tf/UeLIYilFNiDJEWNvQ2VSyqdbj/B62zULSrUnqm7N3Xq7e5yNQFqfVMt85fVIaVbyiJDa0OEJ4ppC8lCyK7QJqS1ER89jkFpIrZ49E7UCARAAgUQQCJPDcEH1HghTLlx+ZW+YZBpyXK6UPyWdGHtqkMWSKAU1sFbz90c37XxYdl2nzZlkWrIcrq8qh3K/LD9wPRxtdWU1eC6/VuTbTcd5+fMNjhsWpUVIrVtvzsN7QYjUyjZKxxpSC6lNR0/HVRLmqUUnAIHKEihtntowqQ3UwxVX/+P+cqyoNzZViey6wurJpmUosshF+IQxUCb55ZLLUqXXTq1Kpiqn6n5RUIhw22l46II/30Ll+oW0M1KLSG2wfdP5GlILqU1nz0/hVWP2gxQ2Oi65qgSKzn4gSg+TWvn1ul9SlQCjV2/3a/xciDh6yXjLJ7UiYpsl07QfzvKLpTyP62GQwbMLhBduTyEmk7vroNQqr7lcMS6W5TV/1gcSMu1cN0ef1QhwQMKl1PquKyRS61ZLbPjF2H+sc68w/KBzvHRIDamF1OrQD1GHGhCA1NYAMopIFYHypVYYqG8mgFCnZJqlSq2Q2MKzLQTF1je2NvQBLUVWfS3r329HeS33YTFRji/67ERn5T5Fen11ypNaW359bAJSK6PZ0ZFazsOLZvsuo8gLSG0RQBoehtRCajXslqhSNQhAaqtBFXmmmUBpUtsFQo4E2lLnRD7dYQdelNewvCiuT1QDaVkgVQn0yaKUYnGOHMbgl1cx5tXJ05NR/3ACvlpRhiPJbn38hQkBlrvcNO70ZJyLHUWWAzK8NMUEtbRI7Z55y4s2DKS2KCLtEkBqIbXadUpUqDoEME9tdbgi1/QSKDxPbXq51PfKS5PaDYMaafzfXk2rf/MiHd6yM7TKkNpQLFrvhNRCarXuoKgcCIAACIAACFSDwKIeT9Dod32Vmj9+Hc3+Vi/aOXm+rxhIrQ9HLF5AaiG1seioqCQIgAAI6Ejg+O794lfF+JfFsMSPwZu39qUxf34RmZluNO6cr9HET3yHVvcdSke27iJIrY53XOE6QWohtYV7CI6CAAiAAAhEEuBo3+xrH8ASYwZjz7mUzMz51CCWbjTmPRfSnG89AKmN7PX6HoDUQmr17Z2oWUUJYJ7aiuJEZiBApc1TC1A6E5jW7SfUkOkmIrUT/u5bNO/6X1H7zMWiyojU6txy4XWD1EJqw3sG9iaOAGY/SFyT4oLqTKDqsx/U+fqSXvykf/oBjX3vxfTqp79Ha59+mY7t2ue7ZEitD0csXkBqIbWx6KioZNcJQGq7zhA5gIBKAFKr0ojX9qIev6XZ1/Ryo7JhtYfUhlHRex+kFlKrdw9F7SpGAFJbMZTICAQEAUhtfDsCT3FY7A9SW4yQfschtZBa/XolalQVApintipYkWmKCWCe2mQ3PqQ2fu0LqYXUxq/XosYgAAIgAAIgUGUCkNoqA65C9pBaSG0VuhWyBAEQAAEQAIF4E4DUxq/9ILWQ2vj1WtQYBEAABEAABKpMAFJbZcBVyB5SC6mtQrdCljoSwDy1OrYK6hRnApinNs6tV7zukNrijHRLAamF1OrWJ1GfKhHA7AdVAotsU0sAsx8ku+khtfFrX0htWqXWMihr5uLXY1HjsglAastGhxNBIJQApDYUS2J2Qmrj15SQ2jKl1jIylMnYi2EFGz5HZtY7nsmaFKqPOZOy8uScSUaEZObMLMlkwZJ8ry3DrZOsm3+dJbcIRWo5fy+dksaXOb+wyIi6FpE2/LhlFMrTyZcvkOtf5EItw6A83Hn1xI4wApDaMCrYBwLlE4DUls8uDmdCauPQSv46QmrLkFpbArNkGLYM+j3MIsORXVcUI0RQFWM3rTzXPScgyBmDrKC8umn9jRt8ZctlIL+sSZYizaqA+mVXkXRZx4DUc/qw6K+aZ7BO9mtPhjkPm2eQoy2zkNpwgqXsxTy1pVBCGhAonQDmqS2dVRxTQmrj12qQ2jKkVjazlD5VauW+yOisc3KeAEZFamVE1TK8aK267UZPA7IaEE+OgKpyqZbP2/Ia1DTyOr21J5/ePrnFEpol0zIpGyzbeS2F12UUkS7D+TihbbduQZEX53rpZC2wBgEQAAEQAIFKEIDUVoJibfOA1FZUaqVYZsk0laEA0hjdtpXpoqOfInKrnqeKrLrtSq2beeSGKqwySsxFuOLIAwwCQwUKCqgSIbbzC5fMsDzVSys0rEGtGxFz84YfBPONvHAcAAEQAAEQAIFOEoDUdhKYBskhtVWR2nxZ9Utc6S0fJpWGoURtfVIb/Mqe6+GJpiuBHBXO8lABi0yDhx8YbmTUTaNWUUaLlX1cLxl5FbJpepFg/7Fiosz182Q1eC6/9th56bgqoXVV6ohNEAABEAABECiXAKS2XHL1Ow9SWxWp9aKJ4uGnTEYRQK+xWdjyxtI6X8l7IuekV8UyMlKbPzwgFyKsQgZNb/YDVQ7Vba+mAYGMeKBLPVeVU3U/5xlZJx66oER/7bSK1PKDdcpxjK9VW6j4tpin9tdDiidEChAAgZII7F2wktYPHFtSWiSKHwFIbfzaDFJbUakV4cMQUfWipWoXUeXOv18ROXGAI5RZymYdOS4ktXnjVL2ypVxalj3TgB1pDYt++vfZdbPrIB6OU8RSrbfMX93H28H93ms7Tx4/awu+V1eZhyf+BpnB6LAyFEGmxzqaAGY/iGaDIyBQDgHMflAOtficA6mNT1vJmkJqC0jt2dOnJafQtRSuYFRV7pdR2OBxmVmpUivGqzqZ8DYPP5B5i7UrmfmRWlkWrz2ZtOVbSG0g6mqnyYlhCeo0ZP5rUiLRSgG+/KP2O9FWnnHBq7scNmHny2UZltxni64o371OzjxMvJVCsZlHAFKbhwQ7QKBLBCC1XcKn/cmQWu2bKK+CkNoQqd3fuo4W9/gtLerxRB6wSu7wi6J/HK4UYZFGvpCFR0ZqZQJlzRIpo7eqFIrhDJbvwSs+y60Tl6nMOOCNn+VUUjgjxuw6xcuH0dSZIDh/3+WI+jkRWrc8vzT7GLhpMkXntFUoYJOIILXoBiBQWQKQ2sry1C03SK1uLVK8PpBaKbWTp9LS34+iKed1p6a/+QY1f/y64vS6mKLUSG0Xi8HpICAI8Dy1h7fsBA0QAIEKETh54DAd3d5eodyQjW4EILW6tUjx+qReah++8Q4aekl3Gn3u5TTm3RdSQ6YbTf7cD4uTQwoQAAEQAAEQAIHEEoDUxq9pUy21z37sMhrxZ18RIssya2a6UeO5V5J1cx8sYIA+gD6APoA+gD6Q4j6w4uE/UssND0ea3f6la2n0P1xLt912Gz300EM0ePBgmjdvHuVyOTpx4kTkeThQPQKpltqe1/2QBnzhOhr5/kuo4V1fITNzPo159wW06C6D3lm9CQsYoA+gD6APoA+gD6S0D2z8UxOktnr+WZWcUy21t9xyC/Xq1Yt+138ATfrP/jTx8zdQ04euojHvuoBWPDKoKsCRKQjUiwDmqa0XeZSbVAKYpzapLWtfF4YfxK99IbXyQbHp06mtrY1yLctpcc+nqPHcK6j15/8TvxZFjUEgggBmP4gAg90gUCYBzH5QJriYnAapjUlDKdWE1Aak9tixYwIPPyl+aMM2BRU2QSDeBCC18W4/1F4/ApBa/dqkkjWC1FaSZm3ygtRGSG1t8KMUEKgdAUht7VijpHQQgNQmu50htfFrX0gtpDZ+vRY1LosA5qktCxtOAoFIApinNhJNIg5AauPXjJBaSG38ei1qDAIgAAIgAAJVJgCprTLgKmQPqYXUVqFbIUsQAAEQAAEQiDcBSG382g9SC6mNX69FjUEABEAABECgygQgtVUGXIXsIbWQ2ip0K2SpIwHMU6tjq6BOcSaAeWrj3HrF6w6pLc5ItxSQWkitbn0S9akSAcx+UCWwyDa1BDD7QbKbHlIbv/aF1EJq49drUeOyCEBqy8KGk0AgkgCkNhJNIg5AauPXjJBaSG38ei1qXBYBSG1Z2HASCEQSgNRGoknEAUht/JoRUgupjV+vRY3LIoB5asvChpNAIJIA5qmNRJOIA5Da+DUjpBZSW+Fea5GRMcgK5GoZWTJzgZ3ipUVG1qTQQ2HJsQ8EQAAEQAAEakAAUlsDyBUuAlIbIbWWkaFMxl4MaWg5k7LOPnlMrrPhxuY2V7TU2UlyZpbccuRZXF7eTvcgmdkoUZRplLVliPz5uqKzNCkbIZhcP3mtUWsv33yxjbx+yyiYr8wzjE9knsplYxMEQAAEQAAEyiEAqS2HWn3PgdSGSK0tcFkyDFvkpFhRqVJbIJ1PCN2M8yVQdIuA1Kqi7ctHEW03y2C/sgyyxTtHZtaJpJZYTzXPoFzmTCMiAksUKcKKOJcupvkR3dLPDcLAaxAAARAAARAoTABSW5iPjkchtSFSKxtKSpkqdfKYvWYZzVBGkTT/ce9VIQET5RgWRUurLaGF8uCSPOFkcfUizaECLOucM8kwLSe9XY6oT9YkKyR67JVhX1tQauW1+OtD5NU9R6bhDDcQ0m5G1lVGv4NcZHv49svr8ZBjK0AA89QGgOAlCHSRAOap7SJAzU+H1GreQCHVg9SWLbVSHCOGABSMgirnyHTS1NRGEtInxz7YB3wip0RoWVy9LJRorMzPjdTKHc7aJ7WqCBtkliG1nCuLLQupKsBhUuvtC9Qp8qX/ujp/fmTGqTiA2Q9S0cy4yBoSwOwHNYRdh6IgtXWA3sUiIbVlSq2ISGYyzlf6Ua2Q/5W5GMKgRhUtk0xLjp0NDEMIkdqokvz7pXA7ksrluXnxsRCpDgiyjO7aouxEpCPSyLQZz6pFdSQj97g8X1x/jkzTsCPdcr9vrTxs5gq5RYZSBqTW3+rFXkFqixHCcRDoHAFIbed4xS01pDZuLUYEqS1LaqXkKeIV1faukHGCgLTKc1zhDKTx7eev8NVIavi27XzKV/xcppBIe81DCuTX+rJ4b62e5+1Vt9ToK+8PDj8QaZ1rVtN6Alq8DCJ/RFZw42twHnYLk2XFddXqYlshAKlVYGATBCpAAFJbAYgaZwGp1bhxIqoGqS1DaqVURcuhnzanzxoGZTNKhFRNEpBX91AJ+1VxdM9zRVZYpzOjgRO9FYLrpZTXkhdNlVHTgC16cmrnESa1cp9aN++8UqSWBd7/DwOfn3UecFPz5VoEX3tXhy2VAOapVWlgGwS6TgDz1Hadoc45QGp1bp3wukFqOy218qv9CEENcmYxlYLoG/eqJCxBXr3U/uEDPqET42PtsaxZ9+EvZ4iEnDpLSKoXCZUCKqKh8pjvQS5vTC+XlT/EIDj7gZq3N01ZZ6XWvi51uIGMjtuzUqiu7WPggcIWCIAACIAACJRNAFJbNrq6nQipLSC15beKFLD8mRHUIQRupDcotYoIe/IWIdNSVh1xNixPKmX9hYw6EVq3fCdjKbXuflfADbKUevFxt74y47DhB8o5olw3P2W4RCBarGTnbToMuEy7bt4/EWH5epy8LLAFAiAAAiAAAuUSgNSWS65+50FqqyK19WvQzpYspTbvPEUq847VeUcwMht8XefqoXgQAAEQAIEEEIDUxq8RIbUpl9r4dVnUuFwCmKe2XHI4DwTCCWCe2nAuSdkLqY1fS6ZWasd/7Bp6+IIs9fv6j+j5H91Lr/7iCVr89DBaO2gcbRoyoWbL8d3749drUONYEsDsB7FsNlRaYwKY/UDjxqlA1SC1FYBY4ywSK7VNf3UVLfjJY/TmTx6jBbc8Ri03PUrWj3uTdYu9jP2LC+m/v5KlJy6/gQZ/vye9et9vaFG/F+it5xpowx/G1WRpffA5Wnj7b2rc5CgurQQgtWlteVx3tQhAaqtFVo98WWqbP3YdLfzp48InrJt7k9X9UdcjZl17P436xNV0++2300MPPUSDBw+mefPmUS6XoxMnTuhxESmrRWKldtvYmbT86RE0+8H+1HjTL2jgBy+kP3z1e/S7C7yFO+KDDz5IAwcOpBkzZlBbWxsdO3asZl1gT8sKWnLP0zUrDwWlmwCkNt3tj6uvPAFIbeWZ6pTjsfZ2WjtwDC3t9wJNv7cfvXzZLTTw45fRwIt/4LpE/6tvpB49etAjjzxCQ4cOpZaWFmpvb4fU1qkhEyu1/F8S/7fEHWz48OH02P0P0gP396J77rnHXR544AHq06eP6Ihz586lHTt21LQjQmrr1OtTWizmqU1pw+Oyq0YA89RWDa0WGZ85c4aOHDlCW7ZsoenTp9Mfnn2OHrnv58TuIF3i3nvvFcExwzCooaGBFi1aRHv27KFTp05pcQ1pq0RipZY71L59+2jlypU0adIk8bXAgAED6Mknn3QXfv2nP/2Jmpubafny5TXviJDatN1uuF4QAAEQAIE4EeBvbzngtXDhQmpsbKRBgwZR//79XY94+umn6bnnnqNhw4bRtGnTaO3atdTR0QGprVMjJ1pqDx06JIYUtLa2iuEFLLcssHLh1/zf15IlS8R/Ypy+lv9dQWrr1OtRLAiAAAiAAAiUQICdgCV148aNQmzZGYIuMWXKFJo9e7YIorEAc3SXo7z4qz2BxEotdygegnDgwAExDIG/PuBOuX79enfh17yfhylwOk5fy44Iqa19h0eJIAACIAACIFAqAXYCjtay2LKwbt682XUI6RPsElu3bhXf9tY6OFbqdaQlXWKllhuQOyP/l8UdcsHPfkt7t24n7nDqwv9R8fEDm7fXVGi5fpDatNxmelwn5qnVox1Qi+QQwDy1yWnLQlciXSK3YAW1GkN9DiF9gl2CA2PsHLUMjhWqdxqPJVpq1QaddfX9dDS3R3Q27nCikx49Rm+PnEJTPv8jeuOKn6nJa7INqa0JZhTiEMDsB+gKIFBZApj9oLI8dc9t99xWWnJff59HSJ+AyOrReqmR2tnX9KLj7fsE9f2t62jJvU/T+A9fTaPfdYGQ2no0B6S2HtTTWyakNr1tjyuvDgFIbXW46porS+3S+5/RtXqoFxGlRmrfuPJntPaZUTT1i92p6W+uooZMNzIz3ei1L3ank+8cqsuSm/YmLen5JDoiCNSEAKS2JphRSIoIQGpT1NhEBKnVv71TI7WzrrqPGv73l4XIstDyMvY9F9HMK35Wt2XGxXfQlpcm699LUMNEEDh15Bgd2rQ9EdeCiwABHQhwQOTItl06VAV1qAGBkwcP0+EtO2tQEoool0BqpJYB8df9C378GI3/26tpzLsvFGI78RPfLpcdzgMBEAABEAABEAABENCEQKqkVjI/0XGQNvx+DE39wo30yrlXCMmVx7AGARAAARAAARAAARCIH4FUSq3aTCJ62703zby89rMfqPXANgiAAAiAAAiAAAiAQPkEUiO1Sx8YQCf2H4gkxeMN8QcCSSZwcP1WWv2boUm+RFwbCNSUwL6Fq2nDHxtrWiYKqx+BjuXrad2zZv0qgJKLEkiN1KpTehWlggQgkEACmP0ggY2KS6orAcx+UFf8NS8csx/UHHmnC4TUdhoZTgCBeBKA1Maz3VBrfQlAavVtm2rUDFJbDaqVzRNSW1meyA0EtCUAqdW2aVCxmBKA1Ma04cqsNqS2THA1PC01Untg7RY6c/JUDdGiKBDQiwDmqdWrPVCb+BPAPLXxb8POXAHmqe0MrfqkTY3U1gcvSgWB0gl0tK4XvzDHvzIXp2XDn5rc30I/e/Ys8YI/ENCBwK4ZC2N1L8n7ftvY6am7p45s2RnLtpJtVu/17tlLfH1Gh/uvHnVIsdTmyMwaZAWpWwZlzVxwL16DQNUJ8AfZuA9cRAtuvjc2y5QvXE9zvtGLjhw5QseOHaMTJ07Q6dOnIbZV7y0ooBQCbz31EjV9+PLY3E9870/8x2to4d1P0NGjR8U9dfLkyVTcU/veXEUNmfNpwUX/iKWTDJr+8nx6a8AoX585c+ZMKt+HtZfanJmlTCZTeDE8NeX08mXw3HxZtcjImsQKaxlZEi7rSm2E9JbyToo0IFAGAZbaiR+7ms6eXRqbZcWjfWjmtT1px44d1N7eTh0dHeKDGGJbRgfAKRUnwFI749KbYnM/8b3fctM9NP+nj4l7avfu3XTgwAH3nqo4II0yFFL7v7oRjcxg6SSD1z91HrX2fYF27txJe/bsoYMHD9Lx48dF5FajJq5JVbSX2qIUciZlpcUSUVBq3UOurHKOLKyKKBsWWYby2pXokEhu0QohAQiURyCuUjvt63fQ0qVLafXq1bRt2zYhthyx5UgB/kCgngTiKrUzf/gQtba20ltvvUXbt28XYsv3VJKH9kBqy5f5af/4RWr55bO0bNkyWrdunZBbFttTp04lus+EvbfoLbUsrK5gRkinlNpg2qxJlhK1JZ/UhqHAPhCoL4G4Su3kS26hKVOm0Jw5c2jVqlWUy+XE12CQ2vr2J5ROFFepnXrdffTaa6/R/PnzhdhyxJaH9yT5noLUli+1r33y32hGj740bdo0WrBgAW3YsIH27dsnhoMl+R+hsPc4vaU2rMbBfVJqxX47Aiujs2rUNii1criBWJtG9PAGZ3hCsFi8BoFKE4ir1DZ/9UZqaGigSZMm0aJFi6itrY0OHz6c6A/gSrc98qsOgTVPjojd8IP5N/akid+4i8aMGSPEliO2PLyHx61DassXvyQPa2CpnXLLwzRu3DiaPn06rVy5UgwHS/o/QmHvGvpLbTAC60Ru3fGxqtRaUk7t8bGFpFYek3LrwkFE10WBjdoSiKvUTvjyDTR8+HAaP348WZZFW7ZsoUOHDomHW2pLEKWBgJ9AXKV2whW300svvUQTJ050/1GE1EJoo8T8tU/8K0288Vc0atQo8a0ZD0Pgb8wgtf73Az1eqdIqa6SKp3vcfrDLFEMO7AfACg4/EHlYzgwIFhkRwxxk1FcWjTUIVItAnKV22LBh1NTURC0tLZDaanUQ5NtpAhWT2pZ7qF9LbR7g5Ejt+MtvoxEjRlBzczMtXLhQfPuRaqntk6HMeRnKBR+g6pOhbE/IrpTal19+mSZPnizGY0NqO/12UaMTXGlVyguT2pxJhpnzPSjmi8Kq53BWIl/Dmf3AmQVBluWkldFcpWRsgkDVCBST2p2jLs37YOV92VHTIp7unkajspm8c4rNrtDSr/RzePYDjtRCaqvWLZBxFwh0TmqHUb+sQTsjZh9p6Xcpjdq5lM623BMxXO0eahHnKvfdTiPyuZAoSYbURkjqwIxgaaliW0hqCx1T8xiZIfO8DJkD/eXmembI6OPfx5FSQ8q1U5/g7Ey++o3MkPUDL2/33ED5MgIbFVzjMoL5ynN4Dan13iSSNfzAN/sBR1+V2Quk1Mo1C2w268ycAKn1ugS26kWgZKnt1Aclf8A6H8YRH9Z5ksv5F/hwV9NDauvVW1BuKQQKSS3/8xYUkrDX7j+NfF/0GxbxD2Qwiuu/71whPltYnPnegtTmi6QqcCybYe3E+9SoLctkVDqx/wdKORwJVl+PzFBJUhs4h+U4KJ9SZDk/tX7qNcltmVa+luuwfOUxXkNqvXeDeEhtoTEAMrrqXJOMrvLaHXfLx8Kir3IMruFEbGVeYWk9ZtgCgaoQiJZaO/LjvkHzB2vwA7blnuiILUeWoj6MI6NOwQ8EGYXyf3hDaqvSFZBphQgUktqzZ/m+Uvt1QDiD91ip/xT60g2jfhFD21xZ9qWH1KqyJrdZ6mTU1CebajRW3VYjqhFRUZF3SLRVLcd9z81kyPiFHSmW+7LnBd8jndcyksvl9vHqzdcgz/WtFTFGpLbrN77+Uht6jf55ZlXntaXW+1EF93QWVvHmwg+RKeeLk/PTcz6ZjPODDG4m2ACB6hGIllpbJIPDD9zXRT58OV0mUzxa6+YX+JBVI7PBbUht9foDcu46geJSGyEaUkTFP4PeP5XZUUakpApR6TeM7Pst4/wjqYiyep8W+CcUkVolgqoIKUdeWThLkVqRhiOjsh2Da1U8lTLUSKmvnJA0MnoqhhewUDtyquYhZZzzEpFglmhFYqW0d3WNSK33XhFTqfUuAFsgkBQCpUit7z/84Bs1v86LyHKk6B5qUT9QI6Q16uvYqIgSCy6kNim9L5nXUVxqOxGpDYhowX8C3fsNkdpSe1ap89QKQQx775PDD1gcI6Q1TB7dMa8DM2QoD51FSi2XzZFjJfJqstTKOsmynSgwizhHYMWwhJDIsBzL26nhEopk8zVBar1eBqn1WGALBOpKIFpqvQ9G38Ml/MFZZOyriBo5ouuN6/MPIZDR19DjgQ9ymVauIbV17TIovAiB4lJbSqTWuV/Ue8GVVvvBsbx//NzjiNQWaSL3cDGpZcnkMak+2VSHHMjtPhkyC4y75cCAFEkhuc55nC/v53Ve8IBFlcfdOkIbnIVBjc5KcRaRZSe6LPdRgUitK9cBYRXnFjiPj0Nq3W5EqZHakx0d3lVjCwQ0JBAttf7hB1ERVfGG64vUOlFaGZktKMGBtM45LMV5H9gyP0RqNexFqJJKoLDUBv+5UwRUjLcNDNlxpTY4FnepGHLgu09UqZURvMDal165pzD8IHr4gZROOe6Vx6y6D1+p22Fi6OwLk0eWUuMH9pRhPml2zlGlVWxLwQ20qZRhrh+LdV5eBeQ0WC+1zEIyDKlV73hKttRub5pFb1x6FzWe8zVqyJwvFn698r+fFxPDnz59WvxCS9p+Rs7fBfBKFwKlSi1HSYOymR9ltccB+iK7IefJiCuLctiHbMGvWCG1unQd1COCjBDHKQAAEUZJREFUQCGpLfjPoSIr7n3hSK349kM5ziLDaXz3oCq18tsUd19EdNcRW0htuNTKr/B9oqiKrLpdQGp958t0iqSy3LrSHCW18jyesosjyOeFj5XNKytk+IEsyye1QfkNvlbKh9T6b/5ERmo5Kjv3278QEtv8sW/S3OzttLL347Tgx/fS1M9/V+yf8v9+SO0tK8Qvbpw8eRJy6+8XeFUHAqVL7TRqaZnmPZCSCc4rawut+2GsRIHsJ779Ais+pOUHb0jaoBhLEeY1hh/UoaOgyJIJFJJaMd8sf7MhI7Asnc69JP6ZG6VM4eUcK+WBy7M8bZcjvZH3jizTd7/ZkWNIbYjUKlLHoigjosG1G7UNSJ/4Cl/uc6bvEhJpeGNh5VRcofnLcbLqrAqOoLKUqtFbmQ+XGSq1xR4UcwSb5VpeX7HrwvAD7y0hkVI79XM3CHFlkVU/gOX22meepMb3X0KN77uUdi5aSR0dHXT06FE6deoUIWrrdQ5s1ZZAtNTKp6/561C5zW943tejMupkR4z80ir7vbf2pDdfaNX8M5QJlV3va1tIbW37CErrHIFoqeV+7jwk5gqrJxEZfriShdOZDq+lX6G0ynmqJCtyK+XEv1YfUvPuKUhtvtSqcqhuB2W1mPzJ9HJ6LVVA5bGw/FVp5VkMWIjVXzhThwpwRFlGX/PyUuRclsdrTuf2jRDpdY+HHOPzIbXe+0LipHZl78FCaDcN/X2o0MoP9v1LJ9gR2/Nvpk2bNtHu3bvp8OHDEFuvb2CrxgSipdb7wJP9V5c1pLbGnQTFdYpAtNTqe09BavOlVhVAbOfzgdR6bwuJktrDb+8QosrDDUr50OdILo+1XfTbIbR27VratWsX8e9rI2LrdRBs1Y4ApLZ2rFFSOghAauPTzsVmP4DM5susZAKp9fp5oqS2feYiIaltrwwtSWpP7J8n0r/+o/+k+fPn07p162jPnj1inO2ZM2c8StgCgRoQgNTWADKKSBUBSG18mhtSGy2tUl6j1pBar58nSmrl0INDm6eVJLUczW0852Jq+qfv0aRJk2jhwoW0ZcsWOnDgAKK1Xh/BVo0IQGprBBrFpIYApDY+TQ2phdRWorcmUmo5AlvK8ANOM+GjV9Ern7mexowZQ2+88QatWbNGRGtPnDiBh8Yq0cOQR8kEILUlo0JCECiJAKS2JExaJILUQmor0RETJbU8Ly2Pkd31hlmS1MrhBxOvu49efvllmjx5Mi1dupR27twpZkPAEIRKdDHkUSoBSG2ppJAOBEojAKktjZMOqSC1kNpK9MNESa18UIznoy0lUstTe7EET/rZ4zRixAhqbm4WQxDa2trEA2OQ2kp0MeRRKgGW2qZzr6S2xiGxWeb/Rw+a8OUbaNiwYdTU1EQtLS1iCM+hQ4fED5yUeu1IBwLVIMBSO/lz347N/cT3/vSLb6Txl9+Wus8kIbWZ86nt/vdh6SSDiR/+Ik288VducK61tZVyuVwqnw9KlNTyHLOLe9qiWixay+Nux/FctR+5mgYPHpy6N5BqfIAgz64R2Dm5hZr/9jpq/sQ1NP7jV1HTR79OjR+5wl4+fDk1arqMv/CnrtRalgWp7Vo3wNkVJLDhT03U/KlracI/XB2fe+ojV1Bztqf4TJo4cWJqAi0dyzZQ84e/Sc0fvJLGn3s5NX3gUnqFP6PPuZga33cRlgIM2GVevfW/aOTIkeIbZ0htBd9E6pkVS+3R9naa8JGrxY8rrB3wVGjEloW3+aNXiSjtxEefEVLLww/4YTEMP6hnC6a7bO6/x48fF3Mmr1y5kl5//XUaPXq0EMahQ4eSrsuLL74oIgT8Afzmm2/S1q1bxZzP/DPU+AOBehLgb9uOHTsmolbLli2j1157jRoaGmJxT40aNUoIypIlS2j79u2J//aQ3//4WZa9e/eKZ1tmzJghnnUZPny4tu99Or0n87dl3Le5jy9fvlxMUcp9P23fOCcuUss/ebtzzlJ69dPfE9I69YvfFT+Ru/nFgWI9N3uH2D/mPRfRqz360PPPPy9uGJYHvolWr14tHhRjueCbDH8gUCsC8k193759Ynq5efPm0auvvkrjxo0Tb+78MKOOy9ixY2n8+PE0ffp0YnHYsWNH4j+Aa9UnUE7XCKj/KPJDwLNnzyb+5ysO99SECRNo5syZxP/g8hzq/KuXSRYUbiv+/N6/fz9t2LBBDGXiQFNjY6OW73u6vRdzn+a+PWfOHHrrrbdS6zGJklp+++PoEP8yGP9nO/eOvtT4wSupIfMlash0o4bMeTT6zy6gV758M70yYIAQ2iFDhoiQPXeGBQsW0Ntvv40pvbr2OYKzyyTAb+r8wx88pRyP6161apXok3PnzhUfxvyBrOPCb6I8zzN/5cW/zseRFv6nMMkfwGU2MU6rMQEpSu+88474BmHFihXEQ2TicE9xPTnixp9JLHppmJGH3/94PD7/Y8wBJv7mR/e20uU9mTmxw/A/Qdu2bSPu8/xPAt8DafpLnNTyBynf/Bzt4v/2+I1hRu+nRHS26co76IUXXhAyKyO0PAaF/yOW/93wz+WmMWSfpk6v87XyP2Xc/zo6OsQsHPyBtnHjRtGXuT/ruHD9Nm/eLEScf7wEPzetcw9LV934A53vKY5yshiyLMXpnuLgDH+WpeWXLvnzm/8hZiHjB5143njd3/90eU9mTty3uY9zX+fPkTQOAUuc1PJbtnwTa29vF1/jzvrDCCG1Y7//gBj7x2NPeLYDHn/CX2/w17z8XyFP5cX/JeJnctP1wafT1coPYf7HjD/IuD9y5Fb35eDBg0Jm+Y2U7x9EaXXqVemuC99T3CdZlvie4r6q+/3E9ZP3FNc7LfdUXN//dOlP3Ge4j3OfYQ9inmn7S6TUyjcxblyOvLaOnCCkdtKPHxbTdvEYHR4DOG3aNPH1Bv88Lv9XyB2Cw/X4QE7bbaDX9XL/5T7IC78x8cIfajovsp5c5zS+kerVg1CbIIG43lPyfSBN91Qc20qH92b1PTjN78OJlFp+Q+Mbgzsaf+20aeJMIbWzevQT43P4gZZZs2YRP1XKX5vyV6YswBDa4EcBXoMACIAACIAACIBAPAgkVmoZv/yPb8frlpDaBb2eEQPveTA1T93FY1D4oRY59iRN/w3Ho3uiliAAAiAAAiAAAiBQGoHYS+2MS+4Uwsq/DFaphSO8HMqXX/2UhhKpQAAEQAAEQAAEQAAE6kUg9lK79L7+xGI74+I7afpFd4jl9QtvJ3WZ/C8/EsI7/u+uoclf6k6TvngTTT6vO03991to2ldvpdcvuM2Xngd98wM6PHQBQxLq1TVRLgiAAAiAAAiAAAiUTiD2UivHzvKYWJ76hGcw4DnaeCoQuawzJwmpnd/DEFN88bxycl5NfkiMp8GQaXnNv4jE02LwWFuW2zTO9VZ6F0JKEAABEAABEAABEKg/gURILUsnR1d5BgMeJ8u/HMMT1/MkxGIZ2iikds5tvxa/0MI/P8q/HtbS0iLG1vKE3G7alSvF9F7r168X827yfKE8vRIPRcAfCIAACIAACIAACICAngQSI7U8HRdLLf+iEf9EHM87K5dVL77iSi3PesBS+8Ybb4ioLf8KEgutTMtrlmKeUJknvobU6tlxUSsQAAEQAAEQAAEQUAkkQmrl1F0soPwb2Syj/DOjctkwZqqQ2pa7n3B/dk/+BCFHdnm4gUzLaz6fBTlNv+SidgpsgwAIgAAIgAAIgEDcCMReahk4Dw1gsZW/GMPjYNWlbfJcIbULez0jhiUsXrxYTO3Fc9TyjzPIB8PUc3iMLn4dKW7dGfUFARAAARAAARBIK4FESC03npyTlgVX/rKGXOemvymkdsmDzxGPleUxtDxEgR8Gkw+CybRyLafzwty1ab01cN0gAAIgAAIgAAJxIpAYqS0EvX3mIltqf/k78SAZj6Fdu3atGGLAEVk8BFaIHo6BAAiAAAiAAAiAgP4EILWQWv17KWoIAiAAAiAAAiAAAkUIQGohtUW6CA6DAAiAAAiAAAiAgP4EILWQWv17KWoIAiAAAiAAAiAAAkUIQGohtUW6CA6DAAiAAAiAAAiAgP4EILWQWv17KWoIAiAAAiAAAiAAAkUIQGohtUW6CA6DAAiAAAiAAAiAgP4EILWQWv17KWoIAiAAAiAAAiAAAkUIJF5qT3Z00NR//ZGYp3bc+y+jzbMWEM9Tyz++wD+Fi3lqi/QQHAYBEAABEAABEACBGBBIvNQu+PFjQmiXP/xHsX71n75H6+bModWrV4tfFDt8+LD4BbIYtBWqCAIgAAIgAAIgAAIgEEEg0VK79L7+QmStm/uIn8NdOeAl8Xryed2ptbWV3n77bXrnnXfo5MmT4md2IxhhNwiAAAiAAAiAAAiAgOYEEiu1m19sFgI7N/tzOnbsGO3du1f8RO7cO/qK/TOu7SV+Kre9vV0MQTh9+jTEVvPOiuqBAAiAAAiAAAiAQBSBRErt9qZZQlynfuEmOtreTh0dHbRt2zYx5GDx4sX0+jX3iePzexgiWrtv3z4hvhDbqG6C/SAAAiAAAiAAAiCgN4HESW1H63pq/MDl1Pzx6+jY7t104MABMXZ23bp14gGxFStWiPXkL3UXYruk32AhvPv37xdie+bMGb1bDLUDARAAARAAARAAARDII5AoqeWZDlhoG99/Ge1dtIYOHjxIO3fupA0bNogoLc94sHnzZiGxO5Yvp4mf/b4Q2/UTZtL27dtFRPf48eMEsc3rJ9gBAiAAAiAAAiAAAloTSIzUqlN35aa/KR4M27VrlxhHyzMdsNBu3bqV9uzZIx4O4yEHbVYrjXvfpTTunK8Ri+2OHTtEZPfEiRMQW627LSoHAiAAAiAAAiAAAn4CiZHaGZfcKaKum4aMFw9+8QNgmzZtojVr1gih5ZkOWGh5XlqWVn54jIccvD11vhDbpo9cTduWLhVz13KEFzMi+DsKXoEACIAACIAACICAzgQSIbVyLtqV//28kFaWV5ZYjs6y1PKQg927d4tjp06dElFYfiiMxZYjtmuebxRCPPGz36Xty5YRC/GhQ4eI0549e1bn9kPdQAAEQAAEQAAEQAAEiCj2UrtuwCghpDwXrZRUHmbAQsvDDjZu3Eg8DCEoqSyrLK0cuWUJXv7UiyKfWd95ME+CIba4V0AABEAABEAABEBAbwKxltrDb+8QIspTd/EDXnLqrrVr1wqh5QfE+Kdwo4YTSLHlXxXj6Oys7/5S5MczImzZskXMbXv06FHxi2MQW707MmoHAiAAAiAAAiCQbgKxllpuOp6T9viePe5MB+vXrxdCy+tSHvxiWeXxsxzJ5YjusieHiiELPAVYW1ubeKgMD46l+ybB1YMACIAACIAACOhPIPZSy9NvcZSWx8bysAOWURbazkzRxXmwuMopwHjIAkd75cNlMlqrf3OihiAAAiAAAiAAAiCQTgKJkFo5lpZFlocNcIS2sz+mIMWWf6yBhyxwPvwrZHLGBH6wDH8gAAIgAAIgAAIgAAJ6EkiE1Moo6969e915aFl0O/uztzLqy2Ir8+JtzouP4Q8EQAAEQAAEQAAEQEBPArGXWh4Ty/LKYsvDBHjh7c4KrWweGbFlkeW8eGgDpvaSdLAGARAAARAAARAAAT0JxF5qGSuLLcsoiywvvN2V2Qr4fJlfV/PSs9lRKxAAARAAARAAARBIFoFESG2ymgRXAwIgAAIgAAIgAAIg0FkCkNrOEkN6EAABEAABEAABEAAB7QhAarVrElQIBEAABEAABEAABECgswQgtZ0lhvQgAAIgAAIgAAIgAALaEYDUatckqBAIgAAIgAAIgAAIgEBnCUBqO0sM6UEABEAABEAABEAABLQjAKnVrklQIRAAARAAARAAARAAgc4SgNR2lhjSgwAIgAAIgAAIgAAIaEfg/wP65AHG+laaXwAAAABJRU5ErkJggg==;" vertex="1" parent="WIyWlLk6GJQsqaUBKTNV-1">
          <mxGeometry x="110" y="50" width="693" height="568" as="geometry" />
        </mxCell>
        <mxCell id="JJHpx4JvDZ3OPgQH-rT--4" value="接入方" style="rounded=1;whiteSpace=wrap;html=1;" vertex="1" parent="WIyWlLk6GJQsqaUBKTNV-1">
          <mxGeometry x="240" y="700" width="90" height="40" as="geometry" />
        </mxCell>
        <mxCell id="JJHpx4JvDZ3OPgQH-rT--7" value="会运通" style="rounded=1;whiteSpace=wrap;html=1;" vertex="1" parent="WIyWlLk6GJQsqaUBKTNV-1">
          <mxGeometry x="480" y="700" width="90" height="40" as="geometry" />
        </mxCell>
        <mxCell id="JJHpx4JvDZ3OPgQH-rT--8" value="油气操作员" style="rounded=1;whiteSpace=wrap;html=1;" vertex="1" parent="WIyWlLk6GJQsqaUBKTNV-1">
          <mxGeometry x="720" y="700" width="90" height="40" as="geometry" />
        </mxCell>
        <mxCell id="JJHpx4JvDZ3OPgQH-rT--11" value="司机端" style="shape=umlActor;verticalLabelPosition=bottom;verticalAlign=top;html=1;outlineConnect=0;" vertex="1" parent="WIyWlLk6GJQsqaUBKTNV-1">
          <mxGeometry x="90" y="1220" width="30" height="60" as="geometry" />
        </mxCell>
        <mxCell id="JJHpx4JvDZ3OPgQH-rT--12" value="接入方" style="rounded=1;whiteSpace=wrap;html=1;" vertex="1" parent="WIyWlLk6GJQsqaUBKTNV-1">
          <mxGeometry x="240" y="1240" width="90" height="40" as="geometry" />
        </mxCell>
        <mxCell id="JJHpx4JvDZ3OPgQH-rT--13" value="会运通" style="rounded=1;whiteSpace=wrap;html=1;" vertex="1" parent="WIyWlLk6GJQsqaUBKTNV-1">
          <mxGeometry x="480" y="1240" width="90" height="40" as="geometry" />
        </mxCell>
        <mxCell id="JJHpx4JvDZ3OPgQH-rT--14" value="油气操作员" style="rounded=1;whiteSpace=wrap;html=1;" vertex="1" parent="WIyWlLk6GJQsqaUBKTNV-1">
          <mxGeometry x="720" y="1240" width="90" height="40" as="geometry" />
        </mxCell>
        <mxCell id="JJHpx4JvDZ3OPgQH-rT--15" value="" style="endArrow=none;html=1;entryX=0.5;entryY=0.5;entryDx=0;entryDy=0;entryPerimeter=0;exitX=0.5;exitY=0.5;exitDx=0;exitDy=0;exitPerimeter=0;" edge="1" parent="WIyWlLk6GJQsqaUBKTNV-1" target="JJHpx4JvDZ3OPgQH-rT--1">
          <mxGeometry width="50" height="50" relative="1" as="geometry">
            <mxPoint x="105" y="980" as="sourcePoint" />
            <mxPoint x="270" y="800" as="targetPoint" />
          </mxGeometry>
        </mxCell>
        <mxCell id="JJHpx4JvDZ3OPgQH-rT--16" value="" style="endArrow=none;html=1;entryX=0.5;entryY=1;entryDx=0;entryDy=0;exitX=0.5;exitY=0;exitDx=0;exitDy=0;" edge="1" parent="WIyWlLk6GJQsqaUBKTNV-1" source="JJHpx4JvDZ3OPgQH-rT--25" target="JJHpx4JvDZ3OPgQH-rT--4">
          <mxGeometry width="50" height="50" relative="1" as="geometry">
            <mxPoint x="240" y="890" as="sourcePoint" />
            <mxPoint x="290" y="840" as="targetPoint" />
            <Array as="points" />
          </mxGeometry>
        </mxCell>
        <mxCell id="JJHpx4JvDZ3OPgQH-rT--17" value="" style="endArrow=none;html=1;entryX=0.5;entryY=1;entryDx=0;entryDy=0;exitX=0.5;exitY=0;exitDx=0;exitDy=0;" edge="1" parent="WIyWlLk6GJQsqaUBKTNV-1" source="JJHpx4JvDZ3OPgQH-rT--26" target="JJHpx4JvDZ3OPgQH-rT--7">
          <mxGeometry width="50" height="50" relative="1" as="geometry">
            <mxPoint x="524.5" y="1270" as="sourcePoint" />
            <mxPoint x="524.5" y="770" as="targetPoint" />
          </mxGeometry>
        </mxCell>
        <mxCell id="JJHpx4JvDZ3OPgQH-rT--18" value="" style="endArrow=none;html=1;entryX=0.5;entryY=1;entryDx=0;entryDy=0;exitX=0.5;exitY=0;exitDx=0;exitDy=0;" edge="1" parent="WIyWlLk6GJQsqaUBKTNV-1" source="JJHpx4JvDZ3OPgQH-rT--27" target="JJHpx4JvDZ3OPgQH-rT--8">
          <mxGeometry width="50" height="50" relative="1" as="geometry">
            <mxPoint x="750" y="1250" as="sourcePoint" />
            <mxPoint x="750" y="750" as="targetPoint" />
          </mxGeometry>
        </mxCell>
        <mxCell id="JJHpx4JvDZ3OPgQH-rT--21" value="" style="endArrow=none;html=1;entryX=0.5;entryY=0.5;entryDx=0;entryDy=0;entryPerimeter=0;exitX=0.5;exitY=0.5;exitDx=0;exitDy=0;exitPerimeter=0;" edge="1" parent="WIyWlLk6GJQsqaUBKTNV-1" source="JJHpx4JvDZ3OPgQH-rT--23">
          <mxGeometry width="50" height="50" relative="1" as="geometry">
            <mxPoint x="105" y="1250" as="sourcePoint" />
            <mxPoint x="105" y="980" as="targetPoint" />
          </mxGeometry>
        </mxCell>
        <mxCell id="JJHpx4JvDZ3OPgQH-rT--24" value="" style="endArrow=none;html=1;entryX=0.5;entryY=0.5;entryDx=0;entryDy=0;entryPerimeter=0;exitX=0.5;exitY=0.5;exitDx=0;exitDy=0;exitPerimeter=0;" edge="1" parent="WIyWlLk6GJQsqaUBKTNV-1" source="JJHpx4JvDZ3OPgQH-rT--11" target="JJHpx4JvDZ3OPgQH-rT--23">
          <mxGeometry width="50" height="50" relative="1" as="geometry">
            <mxPoint x="105" y="1250" as="sourcePoint" />
            <mxPoint x="105" y="980" as="targetPoint" />
          </mxGeometry>
        </mxCell>
        <mxCell id="JJHpx4JvDZ3OPgQH-rT--23" value="" style="rounded=0;whiteSpace=wrap;html=1;" vertex="1" parent="WIyWlLk6GJQsqaUBKTNV-1">
          <mxGeometry x="100" y="880" width="10" height="310" as="geometry" />
        </mxCell>
        <mxCell id="JJHpx4JvDZ3OPgQH-rT--27" value="" style="rounded=0;whiteSpace=wrap;html=1;" vertex="1" parent="WIyWlLk6GJQsqaUBKTNV-1">
          <mxGeometry x="760" y="790" width="10" height="400" as="geometry" />
        </mxCell>
        <mxCell id="JJHpx4JvDZ3OPgQH-rT--28" value="" style="endArrow=none;html=1;entryX=0.5;entryY=1;entryDx=0;entryDy=0;exitX=0.5;exitY=0;exitDx=0;exitDy=0;" edge="1" parent="WIyWlLk6GJQsqaUBKTNV-1" source="JJHpx4JvDZ3OPgQH-rT--14" target="JJHpx4JvDZ3OPgQH-rT--27">
          <mxGeometry width="50" height="50" relative="1" as="geometry">
            <mxPoint x="765" y="1240" as="sourcePoint" />
            <mxPoint x="765" y="740" as="targetPoint" />
          </mxGeometry>
        </mxCell>
        <mxCell id="JJHpx4JvDZ3OPgQH-rT--26" value="" style="rounded=0;whiteSpace=wrap;html=1;" vertex="1" parent="WIyWlLk6GJQsqaUBKTNV-1">
          <mxGeometry x="520" y="790" width="10" height="400" as="geometry" />
        </mxCell>
        <mxCell id="JJHpx4JvDZ3OPgQH-rT--29" value="" style="endArrow=none;html=1;entryX=0.5;entryY=1;entryDx=0;entryDy=0;exitX=0.5;exitY=0;exitDx=0;exitDy=0;" edge="1" parent="WIyWlLk6GJQsqaUBKTNV-1" source="JJHpx4JvDZ3OPgQH-rT--13" target="JJHpx4JvDZ3OPgQH-rT--26">
          <mxGeometry width="50" height="50" relative="1" as="geometry">
            <mxPoint x="525" y="1240" as="sourcePoint" />
            <mxPoint x="525" y="740" as="targetPoint" />
          </mxGeometry>
        </mxCell>
        <mxCell id="JJHpx4JvDZ3OPgQH-rT--30" value="" style="endArrow=none;html=1;entryX=0.5;entryY=1;entryDx=0;entryDy=0;exitX=0.5;exitY=0;exitDx=0;exitDy=0;" edge="1" parent="WIyWlLk6GJQsqaUBKTNV-1" source="JJHpx4JvDZ3OPgQH-rT--12" target="JJHpx4JvDZ3OPgQH-rT--25">
          <mxGeometry width="50" height="50" relative="1" as="geometry">
            <mxPoint x="285" y="1240" as="sourcePoint" />
            <mxPoint x="285" y="740" as="targetPoint" />
            <Array as="points">
              <mxPoint x="285" y="800" />
            </Array>
          </mxGeometry>
        </mxCell>
        <mxCell id="JJHpx4JvDZ3OPgQH-rT--25" value="" style="rounded=0;whiteSpace=wrap;html=1;" vertex="1" parent="WIyWlLk6GJQsqaUBKTNV-1">
          <mxGeometry x="280" y="790" width="10" height="400" as="geometry" />
        </mxCell>
        <mxCell id="JJHpx4JvDZ3OPgQH-rT--31" value="" style="endArrow=classic;html=1;exitX=1.2;exitY=0.07;exitDx=0;exitDy=0;exitPerimeter=0;" edge="1" parent="WIyWlLk6GJQsqaUBKTNV-1" source="JJHpx4JvDZ3OPgQH-rT--25">
          <mxGeometry width="50" height="50" relative="1" as="geometry">
            <mxPoint x="370" y="880" as="sourcePoint" />
            <mxPoint x="517" y="820" as="targetPoint" />
          </mxGeometry>
        </mxCell>
        <mxCell id="JJHpx4JvDZ3OPgQH-rT--32" value="1 请求全量油气站数据" style="text;html=1;align=center;verticalAlign=middle;resizable=0;points=[];autosize=1;" vertex="1" parent="WIyWlLk6GJQsqaUBKTNV-1">
          <mxGeometry x="315" y="800" width="130" height="20" as="geometry" />
        </mxCell>
        <mxCell id="JJHpx4JvDZ3OPgQH-rT--33" value="" style="endArrow=classic;html=1;entryX=1.288;entryY=0.144;entryDx=0;entryDy=0;entryPerimeter=0;" edge="1" parent="WIyWlLk6GJQsqaUBKTNV-1" target="JJHpx4JvDZ3OPgQH-rT--25">
          <mxGeometry width="50" height="50" relative="1" as="geometry">
            <mxPoint x="520" y="850" as="sourcePoint" />
            <mxPoint x="370" y="890" as="targetPoint" />
          </mxGeometry>
        </mxCell>
        <mxCell id="JJHpx4JvDZ3OPgQH-rT--34" value="2 返回全量数据" style="edgeLabel;html=1;align=center;verticalAlign=middle;resizable=0;points=[];" vertex="1" connectable="0" parent="JJHpx4JvDZ3OPgQH-rT--33">
          <mxGeometry x="0.1294" y="4" relative="1" as="geometry">
            <mxPoint x="-11.73" y="-12.64" as="offset" />
          </mxGeometry>
        </mxCell>
        <mxCell id="JJHpx4JvDZ3OPgQH-rT--35" value="" style="endArrow=classic;html=1;exitX=1.053;exitY=0.108;exitDx=0;exitDy=0;exitPerimeter=0;entryX=0.112;entryY=0.314;entryDx=0;entryDy=0;entryPerimeter=0;" edge="1" parent="WIyWlLk6GJQsqaUBKTNV-1" source="JJHpx4JvDZ3OPgQH-rT--23" target="JJHpx4JvDZ3OPgQH-rT--25">
          <mxGeometry width="50" height="50" relative="1" as="geometry">
            <mxPoint x="140" y="1000" as="sourcePoint" />
            <mxPoint x="190" y="950" as="targetPoint" />
          </mxGeometry>
        </mxCell>
        <mxCell id="JJHpx4JvDZ3OPgQH-rT--36" value="3 获取油气站列表" style="edgeLabel;html=1;align=center;verticalAlign=middle;resizable=0;points=[];" vertex="1" connectable="0" parent="JJHpx4JvDZ3OPgQH-rT--35">
          <mxGeometry x="-0.3789" y="-3" relative="1" as="geometry">
            <mxPoint y="-17.14" as="offset" />
          </mxGeometry>
        </mxCell>
        <mxCell id="JJHpx4JvDZ3OPgQH-rT--37" value="" style="endArrow=classic;html=1;entryX=1.641;entryY=0.225;entryDx=0;entryDy=0;entryPerimeter=0;exitX=-0.476;exitY=0.409;exitDx=0;exitDy=0;exitPerimeter=0;" edge="1" parent="WIyWlLk6GJQsqaUBKTNV-1" source="JJHpx4JvDZ3OPgQH-rT--25" target="JJHpx4JvDZ3OPgQH-rT--23">
          <mxGeometry width="50" height="50" relative="1" as="geometry">
            <mxPoint x="285" y="950" as="sourcePoint" />
            <mxPoint x="100" y="950.4" as="targetPoint" />
          </mxGeometry>
        </mxCell>
        <mxCell id="JJHpx4JvDZ3OPgQH-rT--38" value="4 返回油气站列表" style="edgeLabel;html=1;align=center;verticalAlign=middle;resizable=0;points=[];" vertex="1" connectable="0" parent="JJHpx4JvDZ3OPgQH-rT--37">
          <mxGeometry x="-0.3789" y="-3" relative="1" as="geometry">
            <mxPoint x="-5.92" y="-9.4" as="offset" />
          </mxGeometry>
        </mxCell>
      </root>
    </mxGraphModel>
  </diagram>
</mxfile>
